<svg width="24" height="22" viewBox="0 0 24 22" fill="none" xmlns="http://www.w3.org/2000/svg">
<path d="M1 1.62842H5.36553V2.46359" stroke="inherit" stroke-width="1.5" stroke-miterlimit="10" stroke-linecap="round" stroke-linejoin="round"/>
<path d="M7.6919 20.6285C8.65948 20.6285 9.44385 19.8139 9.44385 18.809C9.44385 17.8041 8.65948 16.9895 7.6919 16.9895C6.72432 16.9895 5.93994 17.8041 5.93994 18.809C5.93994 19.8139 6.72432 20.6285 7.6919 20.6285Z" stroke="inherit" stroke-width="1.5" stroke-miterlimit="10" stroke-linecap="round" stroke-linejoin="round"/>
<path d="M19.4387 20.6285C20.4063 20.6285 21.1907 19.8139 21.1907 18.809C21.1907 17.8041 20.4063 16.9895 19.4387 16.9895C18.4711 16.9895 17.6868 17.8041 17.6868 18.809C17.6868 19.8139 18.4711 20.6285 19.4387 20.6285Z" stroke="inherit" stroke-width="1.5" stroke-miterlimit="10" stroke-linecap="round" stroke-linejoin="round"/>
<path d="M6.69716 12.5588L7.07053 13.9905L6.62915 16.125H20.0704" stroke="inherit" stroke-width="1.5" stroke-miterlimit="10" stroke-linecap="round" stroke-linejoin="round"/>
<path d="M6.62918 12.4854L22.9999 10.8747V2.46338H5.36548L6.62918 12.4854Z" stroke="inherit" stroke-width="1.5" stroke-miterlimit="10" stroke-linecap="round" stroke-linejoin="round"/>
</svg>
