<svg width="37" height="34" viewBox="0 0 37 34" fill="none" xmlns="http://www.w3.org/2000/svg">
<path d="M33.3012 4.57114C32.446 3.71553 31.4306 3.03681 30.313 2.57373C29.1954 2.11066 27.9975 1.87231 26.7878 1.87231C25.5781 1.87231 24.3802 2.11066 23.2626 2.57373C22.145 3.03681 21.1296 3.71553 20.2744 4.57114L18.4996 6.346L16.7247 4.57114C14.9972 2.84369 12.6543 1.87321 10.2113 1.87321C7.76832 1.87321 5.42539 2.84369 3.69793 4.57114C1.97048 6.2986 1 8.64153 1 11.0845C1 13.5275 1.97048 15.8705 3.69793 17.5979L5.47279 19.3728L18.4996 32.3995L31.5263 19.3728L33.3012 17.5979C34.1568 16.7427 34.8355 15.7273 35.2986 14.6097C35.7617 13.4921 36 12.2943 36 11.0845C36 9.8748 35.7617 8.67692 35.2986 7.55934C34.8355 6.44175 34.1568 5.42635 33.3012 4.57114V4.57114Z" stroke="#D1D1D1" stroke-width="2" stroke-linecap="round" stroke-linejoin="round"/>
</svg>
