<svg width="90" height="14" viewBox="0 0 90 14" fill="none" xmlns="http://www.w3.org/2000/svg">
<path d="M4.87659 13.216C6.19059 13.216 7.28859 12.892 8.18859 12.244C9.10659 11.596 9.55659 10.714 9.55659 9.58C9.55659 8.662 9.16059 7.87 8.67459 7.42C8.44059 7.186 8.11659 6.952 7.70259 6.736C7.28859 6.52 6.91059 6.358 6.60459 6.25C6.29859 6.142 5.88459 6.016 5.36259 5.854L4.60659 5.638L3.83259 5.422L3.22059 5.188C2.93259 5.08 2.73459 4.99 2.62659 4.9C2.23059 4.594 1.72659 4.108 1.81659 3.478C1.81659 2.326 2.84259 1.426 4.85859 1.426C6.20859 1.426 7.50459 1.822 8.74659 2.596V1.228C7.63059 0.526 6.31659 0.184 4.82259 0.184C3.45459 0.184 2.39259 0.489999 1.61859 1.102C0.844586 1.714 0.466586 2.488 0.466586 3.442C0.466586 4.324 0.826586 5.044 1.25859 5.494C1.47459 5.71 1.78059 5.926 2.19459 6.124C2.60859 6.322 2.98659 6.466 3.31059 6.574C3.63459 6.682 4.08459 6.808 4.64259 6.97C5.09259 7.096 5.41659 7.204 5.59659 7.258L6.38859 7.528C6.74859 7.654 7.00059 7.78 7.14459 7.888C7.68459 8.212 8.27859 8.806 8.18859 9.598C8.18859 11.056 6.74859 11.974 4.78659 11.974C3.88659 11.974 3.02259 11.812 2.17659 11.506C1.34859 11.182 0.700586 10.804 0.214586 10.39V11.884C1.24059 12.658 3.00459 13.216 4.87659 13.216ZM13.5375 2.056C12.3315 3.298 11.7375 4.846 11.7375 6.7C11.7375 8.554 12.3315 10.12 13.5375 11.362C14.7435 12.604 16.2555 13.216 18.0735 13.216C19.8915 13.216 21.3855 12.604 22.5915 11.362C23.7975 10.12 24.4095 8.554 24.4095 6.7C24.4095 4.846 23.7975 3.298 22.5915 2.056C21.3855 0.813999 19.8915 0.184 18.0735 0.184C16.2555 0.184 14.7435 0.813999 13.5375 2.056ZM14.5275 10.462C13.5735 9.454 13.0875 8.194 13.0875 6.7C13.0875 5.206 13.5735 3.946 14.5275 2.938C15.4815 1.93 16.6695 1.426 18.0735 1.426C19.4775 1.426 20.6655 1.93 21.6195 2.938C22.5735 3.946 23.0595 5.206 23.0595 6.7C23.0595 8.194 22.5735 9.454 21.6195 10.462C20.6655 11.47 19.4775 11.974 18.0735 11.974C16.6695 11.974 15.4815 11.47 14.5275 10.462ZM27.4646 0.399999V13H28.7966V6.592L35.4746 13H37.3466L30.2006 6.16L36.3926 0.399999H34.6286L28.7966 5.872V0.399999H27.4646ZM39.7641 2.056C38.5581 3.298 37.9641 4.846 37.9641 6.7C37.9641 8.554 38.5581 10.12 39.7641 11.362C40.9701 12.604 42.4821 13.216 44.3001 13.216C46.1181 13.216 47.6121 12.604 48.8181 11.362C50.0241 10.12 50.6361 8.554 50.6361 6.7C50.6361 4.846 50.0241 3.298 48.8181 2.056C47.6121 0.813999 46.1181 0.184 44.3001 0.184C42.4821 0.184 40.9701 0.813999 39.7641 2.056ZM40.7541 10.462C39.8001 9.454 39.3141 8.194 39.3141 6.7C39.3141 5.206 39.8001 3.946 40.7541 2.938C41.7081 1.93 42.8961 1.426 44.3001 1.426C45.7041 1.426 46.8921 1.93 47.8461 2.938C48.8001 3.946 49.2861 5.206 49.2861 6.7C49.2861 8.194 48.8001 9.454 47.8461 10.462C46.8921 11.47 45.7041 11.974 44.3001 11.974C42.8961 11.974 41.7081 11.47 40.7541 10.462ZM62.0612 13V11.794H55.0232V0.399999H53.6912V13H62.0612ZM64.7778 2.056C63.5718 3.298 62.9778 4.846 62.9778 6.7C62.9778 8.554 63.5718 10.12 64.7778 11.362C65.9838 12.604 67.4958 13.216 69.3138 13.216C71.1318 13.216 72.6258 12.604 73.8318 11.362C75.0378 10.12 75.6498 8.554 75.6498 6.7C75.6498 4.846 75.0378 3.298 73.8318 2.056C72.6258 0.813999 71.1318 0.184 69.3138 0.184C67.4958 0.184 65.9838 0.813999 64.7778 2.056ZM65.7678 10.462C64.8138 9.454 64.3278 8.194 64.3278 6.7C64.3278 5.206 64.8138 3.946 65.7678 2.938C66.7218 1.93 67.9098 1.426 69.3138 1.426C70.7178 1.426 71.9058 1.93 72.8598 2.938C73.8138 3.946 74.2998 5.206 74.2998 6.7C74.2998 8.194 73.8138 9.454 72.8598 10.462C71.9058 11.47 70.7178 11.974 69.3138 11.974C67.9098 11.974 66.7218 11.47 65.7678 10.462ZM83.4771 13.072L89.0391 0.399999H87.5811L82.8651 11.236L78.1491 0.399999H76.6911L82.2351 13.072H83.4771Z" fill="#E5285B"/>
</svg>
