<svg width="53" height="53" viewBox="0 0 53 53" fill="none" xmlns="http://www.w3.org/2000/svg">
<path d="M53 31.0613C53 29.1897 52.1951 28.0359 51.452 27.3778C52.2017 26.7286 53 25.5305 53 23.3752C53 20.1356 50.255 18.9508 48.7059 18.783H35.9903C35.7088 18.783 35.5133 18.6858 35.372 18.4705C35.0827 18.0498 34.9811 17.0428 35.6304 15.6052C37.2877 11.9018 38.0926 9.0895 38.0926 6.9971C38.0938 3.60621 36.3735 0 33.1747 0C31.5482 0 31.3451 0.984917 31.1552 1.94775L31.0403 2.48879C30.7279 3.85796 28.9987 8.17414 25.8706 12.1061C22.5692 16.2699 20.7318 18.9055 17.6048 23.6115C15.5765 26.6689 13.123 28.3318 10.3229 28.5968V25.3373C10.3229 24.9012 9.9651 24.5589 9.52675 24.5589H0.797208C0.361062 24.56 0 24.9023 0 25.3384V52.2105C0 52.6489 0.361062 53 0.797208 53H9.52565C9.964 53 10.3217 52.6489 10.3217 52.2105V48.6452H18.5798C19.2699 48.6452 20.0285 48.8494 21.083 49.1409C23.3145 49.7504 26.6987 50.6746 33.284 50.6746C43.3728 50.6746 47.8767 49.5219 48.3537 46.8178C48.6275 45.2454 48.5171 44.0916 47.9694 43.1221C49.354 42.5645 51.5359 41.2947 51.5359 38.7982C51.5359 37.0393 50.9882 35.9771 50.4174 35.3433C51.5138 34.6189 53 33.2454 53 31.0613ZM8.7185 51.4332H1.60325V26.1157H8.7185V51.4332ZM48.6672 34.5118C48.3625 34.6355 48.1726 34.9325 48.1726 35.2527C48.1825 35.574 48.3934 35.8666 48.6993 35.9782C48.7456 35.9936 49.9348 36.4662 49.9348 38.7993C49.9348 41.1424 46.5252 41.9517 46.4943 41.9616C46.2127 42.0213 45.9852 42.2289 45.9079 42.4939C45.8218 42.7611 45.8914 43.0537 46.0879 43.2568C46.7449 43.9392 47.0883 44.7243 46.7681 46.5594C46.6036 47.5134 44.6326 49.1089 33.2851 49.1089C26.9185 49.1089 23.6645 48.2223 21.5147 47.6271C20.3818 47.3213 19.4885 47.0773 18.5809 47.0773H10.3217V30.1879C13.7027 29.9306 16.5956 28.0105 18.9486 24.4683C22.0469 19.7999 23.8754 17.1875 27.1371 13.0711C30.4297 8.9294 32.2671 4.30846 32.6038 2.8344L32.7286 2.24477L32.8534 1.59552C32.8611 1.59552 32.9307 1.56681 33.1736 1.56681C35.4647 1.56681 36.4982 4.7446 36.4982 6.98937C36.4982 8.86867 35.7319 11.4734 34.1574 14.9714C33.3856 16.7049 33.3392 18.2938 34.0271 19.3251C34.4721 19.9832 35.1688 20.3399 35.9892 20.3399H48.612C48.7225 20.3487 51.3956 20.6921 51.3956 23.3741C51.3956 26.0859 49.8079 26.574 49.7615 26.5905C49.417 26.6745 49.1741 26.9638 49.1597 27.3071C49.1365 27.645 49.3474 27.9575 49.6742 28.0779C49.6919 28.0856 51.3967 28.7348 51.3967 31.0668C51.3967 33.3966 48.6915 34.5063 48.6672 34.5118Z" fill="#E5285B"/>
</svg>
