<svg width="52" height="64" viewBox="0 0 52 64" fill="none" xmlns="http://www.w3.org/2000/svg">
<path d="M26 17.8107C13.9962 17.8107 4.22842 27.2253 4.22842 38.796C4.22842 50.368 13.9948 59.7813 26 59.7813C38.0052 59.7813 47.7702 50.3653 47.7702 38.7947C47.7702 27.224 38.0038 17.8107 26 17.8107ZM26 58.428C14.7694 58.428 5.63379 49.6213 5.63379 38.796C5.63379 27.9707 14.7694 19.1653 26 19.1653C37.2293 19.1653 46.3662 27.9707 46.3662 38.7947C46.3662 49.62 37.2293 58.428 26 58.428ZM52 38.796C52 27.0453 43.5883 16.96 31.8226 14.3667L38.2474 7.64533C38.4718 7.41067 38.4964 7.056 38.3048 6.796L33.5291 0.285333C33.3977 0.106667 33.1842 0 32.9557 0H19.0443C18.8158 0 18.6023 0.106667 18.4709 0.286667L13.6952 6.79733L13.6911 6.804L13.6692 6.83867L13.6281 6.91333L13.6117 6.956L13.5857 7.032L13.5775 7.07733L13.5693 7.16267L13.5665 7.188L13.5679 7.20533L13.5775 7.296L13.5829 7.332L13.6828 7.56L13.7075 7.59067L13.7513 7.64667L20.1774 14.368C8.41305 16.96 0 27.0467 0 38.796L0.00136842 38.8693L0 38.94C0 52.7573 11.6631 64 26 64C40.3369 64 52 52.7573 52 38.94L51.9973 38.8747L52 38.796ZM26 62.5027C19.4412 62.5027 13.2682 60.0347 8.61695 55.5507C3.98347 51.084 1.42589 45.1627 1.40674 38.868C1.44642 25.8293 12.4622 15.232 26 15.232C39.5392 15.232 50.5563 25.832 50.5933 38.8747C50.5481 51.9107 39.5351 62.5027 26 62.5027ZM19.4083 1.35467H32.5931L36.3754 6.51067H15.6246L19.4083 1.35467ZM15.8709 7.864H36.1291L30.0806 14.188C28.7505 13.9853 27.3876 13.8773 26 13.8773C24.6111 13.8773 23.2481 13.9853 21.918 14.188L15.8709 7.864Z" fill="#E5285B"/>
</svg>
