<svg width="55" height="61" viewBox="0 0 55 61" fill="none" xmlns="http://www.w3.org/2000/svg">
<path d="M54.977 42.5792C54.8849 42.2145 54.5127 41.9965 54.1495 42.0899L30.5391 48.2094C29.1641 44.7701 25.8015 42.3301 21.8785 42.3301C21.1661 42.3301 20.4741 42.4118 19.8077 42.565L11.9274 8.9916C11.8928 8.84234 11.8097 8.70866 11.6908 8.61522L1.10517 0.149195C0.810988 -0.0857195 0.383778 -0.0376983 0.148429 0.254323C-0.0856404 0.547642 -0.0383148 0.977238 0.255871 1.21345L10.6573 9.53281L18.5044 42.9647C15.0266 44.321 12.5541 47.7071 12.5541 51.6643C12.5541 56.8143 16.738 60.9999 21.8798 60.9999C27.0217 60.9999 31.2055 56.8104 31.2055 51.6643C31.2055 50.9246 31.1173 50.2042 30.9523 49.5099L54.491 43.4086C54.853 43.3138 55.073 42.9413 54.977 42.5792ZM21.8785 59.6385C17.4862 59.6385 13.9138 56.0602 13.9138 51.6631C13.9138 47.2659 17.4862 43.6889 21.8785 43.6889C26.2696 43.6889 29.8433 47.2659 29.8433 51.6631C29.8433 56.0602 26.2696 59.6385 21.8785 59.6385ZM24.4942 24.5077L29.7755 44.9193C29.8203 45.0945 29.9354 45.2438 30.0902 45.3346C30.1951 45.3956 30.3153 45.4281 30.4355 45.4281L30.6082 45.4047L50.994 40.1159C51.356 40.0211 51.576 39.6499 51.4826 39.2852L46.1988 18.8736C46.1054 18.5102 45.7345 18.2909 45.3712 18.3856L40.4046 19.6744L36.7477 5.55613C36.703 5.38092 36.5904 5.23166 36.4356 5.13951C36.2796 5.04737 36.0928 5.02141 35.9202 5.06683L21.1572 8.89556C20.7926 8.9903 20.5739 9.36149 20.6685 9.7262L24.4942 24.5077ZM49.9925 38.9686L30.9241 43.9174L25.9818 24.8256L40.0861 21.1669L45.0527 19.8795L49.9925 38.9686ZM35.6017 6.55549L39.0872 20.0183L31.3552 22.0235L25.6416 23.5057L22.1574 10.0455L35.6017 6.55549Z" fill="#E5285B"/>
</svg>
