<svg width="52" height="29" viewBox="0 0 52 29" fill="none" xmlns="http://www.w3.org/2000/svg">
<path d="M38 18.2V16.68H26.4V18.2H38ZM32.2 12.36C29.32 12.36 27.28 10.12 27.28 7.2C27.28 4.28 29.32 2.04 32.2 2.04C35.04 2.04 37.08 4.28 37.08 7.2C37.08 10.12 35.04 12.36 32.2 12.36ZM32.2 13.88C34.08 13.88 35.6 13.24 36.84 11.96C38.08 10.64 38.72 9.08 38.72 7.2C38.72 5.32 38.08 3.76 36.84 2.48C35.6 1.16 34.08 0.52 32.2 0.52C30.32 0.52 28.72 1.16 27.48 2.48C26.24 3.76 25.64 5.32 25.64 7.2C25.64 9.08 26.24 10.64 27.48 11.96C28.72 13.24 30.32 13.88 32.2 13.88ZM2.04 29V4.16L21.16 29H22.76V0.999998H20.92V25.8L1.84 0.999998H0.2V29H2.04ZM51.2297 29V0.999998H49.5097L42.9097 5.08V6.96L49.3897 3V29H51.2297Z" fill="#E5285B"/>
</svg>
