<svg width="50" height="8" viewBox="0 0 50 8" fill="none" xmlns="http://www.w3.org/2000/svg">
<path d="M25.0079 0.935547L23.3068 1.57927L22.7345 0.935547H25.0079Z" fill="#E9E9E9"/>
<path d="M23.3068 1.57927L21.399 2.99549H25.0079L23.3068 1.57927Z" fill="#E9E9E9"/>
<path d="M21.399 1.66013L20 2.99586L21.399 2.99549L21.399 1.66013Z" fill="#E9E9E9"/>
<path d="M22.7345 0.935547H22.1463L21.399 1.66013L21.399 2.99549L23.3068 1.57927L22.7345 0.935547Z" fill="#E9E9E9"/>
<path d="M25.0079 0.935547L26.6932 1.57927L27.2655 0.935547H25.0079Z" fill="#E9E9E9"/>
<path d="M21.399 2.99549L20 2.99586L25.0079 7.93555L21.399 2.99549Z" fill="#E9E9E9"/>
<path d="M21.399 2.99549L25.0079 7.93555L25.0079 2.99549H21.399Z" fill="#E9E9E9"/>
<path d="M28.6168 2.99494L25.0079 7.93555L30 2.99494H28.6168Z" fill="#E9E9E9"/>
<path d="M25.0079 2.99549L24.9921 2.99494V7.91945L25.0079 7.93555L28.6168 2.99494L25.0079 2.99549Z" fill="#E9E9E9"/>
<path d="M26.7091 1.57929L28.6168 2.99494L25.0079 2.99549L26.7091 1.57929Z" fill="#E9E9E9"/>
<path d="M25.0079 0.935547L23.3068 1.57927L25.0079 2.99549L26.7091 1.57929L25.0079 0.935547Z" fill="#E9E9E9"/>
<path d="M28.6168 1.66013L28.6168 2.99494H30L28.6168 1.66013Z" fill="#E9E9E9"/>
<path d="M27.8538 0.935547H27.2655L26.7091 1.57929L28.6168 2.99494L28.6168 1.66013L27.8538 0.935547Z" fill="#E9E9E9"/>
<path d="M45.0079 0.935547L43.3068 1.57927L42.7345 0.935547H45.0079Z" fill="#E9E9E9"/>
<path d="M43.3068 1.57927L41.399 2.99549H45.0079L43.3068 1.57927Z" fill="#E9E9E9"/>
<path d="M41.399 1.66013L40 2.99586L41.399 2.99549L41.399 1.66013Z" fill="#E9E9E9"/>
<path d="M42.7345 0.935547H42.1463L41.399 1.66013L41.399 2.99549L43.3068 1.57927L42.7345 0.935547Z" fill="#E9E9E9"/>
<path d="M45.0079 0.935547L46.6932 1.57927L47.2655 0.935547H45.0079Z" fill="#E9E9E9"/>
<path d="M41.399 2.99549L40 2.99586L45.0079 7.93555L41.399 2.99549Z" fill="#E9E9E9"/>
<path d="M41.399 2.99549L45.0079 7.93555L45.0079 2.99549H41.399Z" fill="#E9E9E9"/>
<path d="M48.6168 2.99494L45.0079 7.93555L50 2.99494H48.6168Z" fill="#E9E9E9"/>
<path d="M45.0079 2.99549L44.9921 2.99494V7.91945L45.0079 7.93555L48.6168 2.99494L45.0079 2.99549Z" fill="#E9E9E9"/>
<path d="M46.7091 1.57929L48.6168 2.99494L45.0079 2.99549L46.7091 1.57929Z" fill="#E9E9E9"/>
<path d="M45.0079 0.935547L43.3068 1.57927L45.0079 2.99549L46.7091 1.57929L45.0079 0.935547Z" fill="#E9E9E9"/>
<path d="M48.6168 1.66013L48.6168 2.99494H50L48.6168 1.66013Z" fill="#E9E9E9"/>
<path d="M47.8538 0.935547H47.2655L46.7091 1.57929L48.6168 2.99494L48.6168 1.66013L47.8538 0.935547Z" fill="#E9E9E9"/>
<path d="M5.00795 0.935547L3.30683 1.57927L2.7345 0.935547H5.00795Z" fill="#E9E9E9"/>
<path d="M3.30683 1.57927L1.39905 2.99549H5.00795L3.30683 1.57927Z" fill="#E9E9E9"/>
<path d="M1.39905 1.66013L0 2.99586L1.39905 2.99549L1.39905 1.66013Z" fill="#E9E9E9"/>
<path d="M2.7345 0.935547H2.14626L1.39905 1.66013L1.39905 2.99549L3.30683 1.57927L2.7345 0.935547Z" fill="#E9E9E9"/>
<path d="M5.00795 0.935547L6.69315 1.57927L7.26549 0.935547H5.00795Z" fill="#E9E9E9"/>
<path d="M1.39905 2.99549L0 2.99586L5.00795 7.93555L1.39905 2.99549Z" fill="#E9E9E9"/>
<path d="M1.39905 2.99549L5.00795 7.93555L5.00795 2.99549H1.39905Z" fill="#E9E9E9"/>
<path d="M8.61684 2.99494L5.00795 7.93555L9.99999 2.99494H8.61684Z" fill="#E9E9E9"/>
<path d="M5.00795 2.99549L4.99207 2.99494V7.91945L5.00795 7.93555L8.61684 2.99494L5.00795 2.99549Z" fill="#E9E9E9"/>
<path d="M6.70905 1.57929L8.61684 2.99494L5.00795 2.99549L6.70905 1.57929Z" fill="#E9E9E9"/>
<path d="M5.00795 0.935547L3.30683 1.57927L5.00795 2.99549L6.70905 1.57929L5.00795 0.935547Z" fill="#E9E9E9"/>
<path d="M8.61682 1.66013L8.61684 2.99494H9.99999L8.61682 1.66013Z" fill="#E9E9E9"/>
<path d="M7.85378 0.935547H7.26549L6.70905 1.57929L8.61684 2.99494L8.61682 1.66013L7.85378 0.935547Z" fill="#E9E9E9"/>
</svg>