<svg width="843" height="127" viewBox="0 0 843 127" fill="none" xmlns="http://www.w3.org/2000/svg">
<path opacity="0.3" d="M277.993 -73.1929L117.536 49.6501H421.02L277.993 -73.1929Z" fill="url(#paint0_linear)"/>
<path opacity="0.3" d="M117.536 -65.7854L0 49.6512L117.536 49.6502V-65.7854Z" fill="url(#paint1_linear)"/>
<path opacity="0.3" d="M230.77 -129H180.816L117.536 -65.7856V49.651L277.992 -73.194L230.77 -129Z" fill="url(#paint2_linear)"/>
<path opacity="0.3" d="M117.536 49.6499H0L421.02 478.134L117.536 49.6499Z" fill="url(#paint3_linear)"/>
<path opacity="0.3" d="M117.536 49.6499L421.02 478.134V49.6499H117.536Z" fill="#C1C1C0"/>
<path opacity="0.3" d="M421.02 49.6499V478.134L724.504 49.6499H421.02Z" fill="#C6C6C5"/>
<path opacity="0.3" d="M564.048 -73.1941L724.504 49.6499H421.02L564.048 -73.1941Z" fill="url(#paint4_linear)"/>
<path opacity="0.3" d="M421.02 -129L277.992 -73.194L421.02 49.651L564.048 -73.194L421.02 -129Z" fill="url(#paint5_linear)"/>
<path opacity="0.3" d="M724.504 -65.7854V49.6502H842.04L724.504 -65.7854Z" fill="url(#paint6_linear)"/>
<path opacity="0.3" d="M661.224 -129H611.271L564.048 -73.194L724.504 49.65V-65.7856L661.224 -129Z" fill="url(#paint7_linear)"/>
<path opacity="0.3" d="M724.72 49.6499H842.256L421.237 478.134L724.72 49.6499Z" fill="url(#paint8_linear)"/>
<defs>
<linearGradient id="paint0_linear" x1="327.726" y1="78.6101" x2="-62.8832" y2="-182.407" gradientUnits="userSpaceOnUse">
<stop stop-color="#FEFFFD"/>
<stop offset="0.1506" stop-color="#F0F4F0"/>
<stop offset="1" stop-color="#1F1F23"/>
</linearGradient>
<linearGradient id="paint1_linear" x1="30.8254" y1="-47.9757" x2="116.415" y2="69.4811" gradientUnits="userSpaceOnUse">
<stop stop-color="#EAEDEA"/>
<stop offset="1" stop-color="#E7E7E6"/>
</linearGradient>
<linearGradient id="paint2_linear" x1="117.537" y1="-39.6745" x2="277.993" y2="-39.6745" gradientUnits="userSpaceOnUse">
<stop stop-color="#EAEDEA"/>
<stop offset="1" stop-color="#DEE0E0"/>
</linearGradient>
<linearGradient id="paint3_linear" x1="104.135" y1="-1.1475" x2="215.274" y2="264.924" gradientUnits="userSpaceOnUse">
<stop stop-color="#EAEDEA"/>
<stop offset="1" stop-color="#E7E7E6"/>
</linearGradient>
<linearGradient id="paint4_linear" x1="555.01" y1="61.2646" x2="1041.03" y2="-320.828" gradientUnits="userSpaceOnUse">
<stop stop-color="#FEFFFD"/>
<stop offset="0.1506" stop-color="#F0F4F0"/>
<stop offset="1" stop-color="#1F1F23"/>
</linearGradient>
<linearGradient id="paint5_linear" x1="421.02" y1="-136.744" x2="421.02" y2="-26.7934" gradientUnits="userSpaceOnUse">
<stop stop-color="#EAEDEA"/>
<stop offset="0.265" stop-color="#F7F9F6"/>
<stop offset="1" stop-color="#DEE0E0"/>
</linearGradient>
<linearGradient id="paint6_linear" x1="724.504" y1="-8.0675" x2="842.04" y2="-8.0675" gradientUnits="userSpaceOnUse">
<stop stop-color="#EAEDEA"/>
<stop offset="1" stop-color="#E7E7E6"/>
</linearGradient>
<linearGradient id="paint7_linear" x1="663.345" y1="-140.171" x2="640.104" y2="10.1906" gradientUnits="userSpaceOnUse">
<stop stop-color="#EAEDEA"/>
<stop offset="1" stop-color="#DEE0E0"/>
</linearGradient>
<linearGradient id="paint8_linear" x1="738.122" y1="-1.1475" x2="626.983" y2="264.924" gradientUnits="userSpaceOnUse">
<stop stop-color="#EAEDEA"/>
<stop offset="1" stop-color="#E7E7E6"/>
</linearGradient>
</defs>
</svg>
