<svg width="27" height="28" viewBox="0 0 27 28" fill="white" xmlns="http://www.w3.org/2000/svg">
<path d="M19.5886 0.667236H7.64008C3.58243 0.667236 0.28125 3.96857 0.28125 8.02623V19.9748C0.28125 24.0326 3.58243 27.3337 7.64008 27.3337H19.5886C23.6466 27.3337 26.9478 24.0324 26.9478 19.9748V8.02623C26.9479 3.96857 23.6466 0.667236 19.5886 0.667236ZM24.5819 19.9748C24.5819 22.728 22.342 24.9678 19.5888 24.9678H7.64008C4.88703 24.9679 2.64723 22.728 2.64723 19.9748V8.02623C2.64723 5.27317 4.88703 3.03322 7.64008 3.03322H19.5886C22.3418 3.03322 24.5818 5.27317 24.5818 8.02623V19.9748H24.5819Z"/>
<path d="M13.6145 7.12939C9.82563 7.12939 6.74323 10.2118 6.74323 14.0007C6.74323 17.7894 9.82563 20.8716 13.6145 20.8716C17.4034 20.8716 20.4858 17.7894 20.4858 14.0007C20.4858 10.2118 17.4034 7.12939 13.6145 7.12939ZM13.6145 18.5055C11.1304 18.5055 9.10921 16.4846 9.10921 14.0005C9.10921 11.5162 11.1302 9.49522 13.6145 9.49522C16.0988 9.49522 18.1198 11.5162 18.1198 14.0005C18.1198 16.4846 16.0986 18.5055 13.6145 18.5055Z"/>
<path d="M20.774 5.12329C20.3181 5.12329 19.8703 5.30784 19.5484 5.63119C19.2249 5.95296 19.0389 6.40092 19.0389 6.85834C19.0389 7.31435 19.2251 7.76215 19.5484 8.0855C19.8702 8.40727 20.3181 8.5934 20.774 8.5934C21.2314 8.5934 21.6778 8.40727 22.0011 8.0855C22.3245 7.76215 22.509 7.31419 22.509 6.85834C22.509 6.40092 22.3245 5.95296 22.0011 5.63119C21.6794 5.30784 21.2314 5.12329 20.774 5.12329Z"/>
</svg>
