<svg width="201" height="30" viewBox="0 0 201 30" fill="none" xmlns="http://www.w3.org/2000/svg">
<path d="M117.928 0C124.875 0 128.446 4.3554 128.446 11.2136C128.446 17.9744 125.395 23.1423 117.959 23.1423H110.136V0H117.928ZM111.531 21.908H117.473C124.55 21.908 127.05 17.6501 127.05 11.3119C127.05 5.33082 124.258 1.23504 117.862 1.23504H111.532V21.908H111.531Z" fill="url(#paint0_linear)"/>
<path d="M138.319 23.6507C133.729 23.6507 130.735 20.2332 130.735 14.927C130.735 9.62155 133.828 5.97607 138.319 5.97607C143.268 5.97607 145.612 10.0119 145.612 14.5694V15.0254H132.102C132.102 18.866 133.958 22.5443 138.352 22.5443C141.412 22.5443 143.496 20.6892 144.146 17.4341H145.449C144.862 21.0787 142.291 23.6507 138.319 23.6507ZM138.319 7.14804C134.218 7.14804 132.46 10.3055 132.102 13.8854H144.277C144.277 10.4999 142.356 7.14804 138.319 7.14804Z" fill="url(#paint1_linear)"/>
<path d="M159.052 11.2914C158.792 8.22576 156.973 7.11735 153.919 7.11735C151.158 7.11735 149.403 8.3564 149.403 10.3785C149.403 12.9544 151.97 13.2806 154.699 13.9001C157.395 14.5196 160.871 15.2369 160.871 18.7265C160.871 21.6614 158.24 23.6507 154.309 23.6507C150.118 23.6507 147.519 21.401 147.519 17.5203H148.819C148.819 20.8792 150.865 22.4765 154.373 22.4765C157.46 22.4765 159.572 21.009 159.572 18.7922C159.572 16.1186 156.388 15.596 154.406 15.14C151.742 14.5205 148.039 14.0965 148.039 10.5091C148.039 7.67197 150.313 5.97607 154.114 5.97607C157.882 5.97607 160.319 7.73688 160.384 11.2914H159.052Z" fill="url(#paint2_linear)"/>
<path d="M165.448 3.28241H164.177V0H165.448V3.28241ZM165.448 23.1423H164.177V6.50093H165.448V23.1423Z" fill="url(#paint3_linear)"/>
<path d="M183.121 21.7997C183.121 24.0833 182.863 25.3559 182.184 26.5634C181.115 28.4558 178.883 29.4998 175.939 29.4998C171.959 29.4998 169.662 27.6724 169.403 24.3776H170.73C170.924 27.1175 173.059 28.39 176.003 28.39C178.204 28.39 179.886 27.7053 180.825 26.4327C181.536 25.4545 181.86 24.0513 181.86 21.8326V18.3084C180.857 21.0163 178.721 22.5823 175.648 22.5823C171.378 22.5823 168.627 19.3853 168.627 14.4588C168.627 9.33661 171.506 5.97607 175.875 5.97607C178.884 5.97607 180.89 7.6399 181.925 10.2499V6.43396H183.123V21.7997H183.121ZM169.953 14.296C169.953 18.6677 172.217 21.4084 175.809 21.4084C179.919 21.4084 181.86 18.0479 181.86 14.1653C181.86 9.92355 179.498 7.15078 175.906 7.15078C172.283 7.1516 169.953 9.95725 169.953 14.296Z" fill="url(#paint4_linear)"/>
<path d="M188.073 10.1215C189.241 7.44591 191.12 5.97656 194.2 5.97656C197.927 5.97656 200.034 8.3586 200.034 12.1771V23.1417H198.738V12.83C198.738 9.63225 197.7 7.15155 193.908 7.15155C191.769 7.15155 190.051 8.16291 189.046 9.89291C188.398 11.035 188.106 12.3078 188.106 14.4942V23.1425H186.81V6.43455H188.074V10.1215H188.073Z" fill="url(#paint5_linear)"/>
<path d="M5.74112 23.1423H0.654907V0H5.74112V23.1423Z" fill="#656565"/>
<path d="M20.8059 23.1425V13.3938C20.8059 11.321 20.4192 9.76638 17.9686 9.76638C15.2272 9.76638 14.357 11.7421 14.357 14.1707V23.1425H9.81018V6.4303H14.1636V8.7618C15.4856 6.98032 17.3243 5.97656 19.6782 5.97656C23.1931 5.97656 25.4503 8.08201 25.4503 11.9681V23.1417H20.8059V23.1425Z" fill="#656565"/>
<path d="M43.8877 6.35791L38.2272 23.1424H33.0833L27.3575 6.35791H32.2104L35.7689 17.8077L39.3267 6.35791H43.8877Z" fill="#656565"/>
<path d="M62.5796 14.7337C62.5796 20.1359 59.1732 23.6514 53.9494 23.6514C48.7257 23.6514 45.2865 20.104 45.2865 14.7337C45.2865 9.39618 48.7584 5.84961 54.014 5.84961C59.1723 5.84961 62.5796 9.39618 62.5796 14.7337ZM49.8939 14.7337C49.8939 18.1835 51.3866 20.1687 53.9494 20.1687C56.4804 20.1687 57.9723 18.1515 57.9723 14.7017C57.9723 11.3495 56.4476 9.3642 53.884 9.3642C51.4185 9.3642 49.8939 11.3814 49.8939 14.7337Z" fill="#656565"/>
<path d="M70.336 23.1423H65.7584V0H70.336V23.1423Z" fill="#656565"/>
<path d="M83.1788 9.49529H79.7601V17.4248C79.7601 19.056 79.7929 19.8067 81.7787 19.8067C82.2675 19.8067 82.6251 19.8067 83.1788 19.7409V23.2658C81.9091 23.3636 81.4202 23.3965 80.3785 23.3965C76.407 23.3965 75.1701 22.3523 75.1701 18.2404V9.49529H72.3706V6.36265H75.1701V1.27148H79.7601V6.36183H83.1788V9.49529Z" fill="#656565"/>
<path d="M96.2116 23.1617C95.9859 22.5423 95.9542 22.281 95.8892 21.5318C94.4714 22.9662 92.5054 23.6514 90.507 23.6514C86.8333 23.6514 84.5774 21.7282 84.5774 18.5653C84.5774 14.1635 88.541 13.6418 91.829 13.2179C94.7938 12.8269 95.8892 12.5664 95.8892 11.197C95.8892 9.6648 94.9229 8.94678 92.8928 8.94678C90.7977 8.94678 89.928 9.59907 89.6056 11.5231H85.3188C85.5762 7.77363 88.2194 5.84961 93.0211 5.84961C96.3732 5.84961 100.273 6.63171 100.273 11.3268V18.5981C100.273 20.1303 100.241 21.7282 100.853 23.1625H96.2116V23.1617ZM92.6345 15.8583C91.0551 16.1187 89.2824 16.3151 89.2824 18.3689C89.2824 19.7713 90.2171 20.6183 91.7965 20.6183C94.1815 20.6183 95.8576 19.2816 95.8576 16.8688V14.9776C94.7938 15.5971 93.795 15.662 92.6345 15.8583Z" fill="#656565"/>
<path d="M105.494 23.1425C106.583 23.1425 107.465 22.2886 107.465 21.2352C107.465 20.1818 106.583 19.3279 105.494 19.3279C104.406 19.3279 103.524 20.1818 103.524 21.2352C103.524 22.2886 104.406 23.1425 105.494 23.1425Z" fill="#656565"/>
<defs>
<linearGradient id="paint0_linear" x1="110.136" y1="11.5712" x2="128.055" y2="8.9252" gradientUnits="userSpaceOnUse">
<stop stop-color="#FF195E"/>
<stop offset="1" stop-color="#E82A5D"/>
</linearGradient>
<linearGradient id="paint1_linear" x1="130.735" y1="14.8134" x2="145.254" y2="12.5327" gradientUnits="userSpaceOnUse">
<stop stop-color="#FF195E"/>
<stop offset="1" stop-color="#E82A5D"/>
</linearGradient>
<linearGradient id="paint2_linear" x1="147.519" y1="14.8134" x2="160.61" y2="12.9679" gradientUnits="userSpaceOnUse">
<stop stop-color="#FF195E"/>
<stop offset="1" stop-color="#E82A5D"/>
</linearGradient>
<linearGradient id="paint3_linear" x1="164.177" y1="11.5712" x2="165.448" y2="11.5581" gradientUnits="userSpaceOnUse">
<stop stop-color="#FF195E"/>
<stop offset="1" stop-color="#E82A5D"/>
</linearGradient>
<linearGradient id="paint4_linear" x1="168.627" y1="17.738" x2="182.934" y2="16.0927" gradientUnits="userSpaceOnUse">
<stop stop-color="#FF195E"/>
<stop offset="1" stop-color="#E82A5D"/>
</linearGradient>
<linearGradient id="paint5_linear" x1="186.81" y1="14.5596" x2="199.767" y2="12.6969" gradientUnits="userSpaceOnUse">
<stop stop-color="#FF195E"/>
<stop offset="1" stop-color="#E82A5D"/>
</linearGradient>
</defs>
</svg>
