<svg width="211" height="94" viewBox="0 0 211 94" fill="none" xmlns="http://www.w3.org/2000/svg">
<path d="M4.92 89.21V88.49C6.06 88.47 6.93 88.17 7.52 87.59C8.11 87.01 8.41 86.31 8.41 85.48C8.41 84.65 8.11 83.94 7.52 83.36C6.93 82.78 6.06 82.48 4.92 82.46V81.82H4.18V82.46C3.04 82.48 2.17 82.78 1.58 83.37C0.99 83.96 0.7 84.66 0.7 85.49C0.7 86.32 0.99 87.03 1.58 87.6C2.17 88.17 3.04 88.47 4.18 88.49V89.21H4.92ZM4.18 87.82C3.26 87.81 2.58 87.58 2.13 87.13C1.68 86.68 1.46 86.13 1.46 85.48C1.46 84.83 1.68 84.27 2.13 83.82C2.58 83.37 3.26 83.14 4.18 83.13V87.82ZM4.92 83.13C5.85 83.14 6.53 83.37 6.98 83.82C7.43 84.27 7.65 84.83 7.65 85.48C7.65 86.65 6.92 87.79 4.92 87.82V83.13ZM14.9611 89V88.33H10.7511V85.58H14.0811V84.91H10.7511V82.67H14.8111V82H10.0111V89H14.9611ZM16.1776 90.56V89H22.0576V90.56H22.7476V88.33H21.6876V82H17.3676V82.84C17.3676 84.27 17.2676 85.39 17.0776 86.2C16.8876 87.01 16.5776 87.72 16.1476 88.33H15.4876V90.56H16.1776ZM16.9776 88.33C17.7276 87.25 18.0976 85.52 18.0976 83.14V82.67H20.9476V88.33H16.9776ZM28.9213 89V88.33H24.7113V85.58H28.0413V84.91H24.7113V82.67H28.7713V82H23.9713V89H28.9213ZM31.0077 89V85.91H33.2077C34.6077 85.91 35.4477 85.13 35.4477 83.94C35.4477 82.78 34.6077 82 33.2077 82H30.2677V89H31.0077ZM31.0077 82.67H33.1577C34.1477 82.67 34.7177 83.13 34.7177 83.96C34.7177 84.77 34.1477 85.24 33.1577 85.24H31.0077V82.67ZM36.1657 89L37.0157 87.07H40.6857L41.5557 89H42.3357L39.2057 81.96H38.5157L35.3957 89H36.1657ZM38.8557 82.89L40.4457 86.42H37.2657L38.8557 82.89ZM42.655 89C42.705 89.01 42.805 89.01 42.935 89.01C43.985 88.97 44.535 88.42 44.815 87.23C45.015 86.4 45.075 85.56 45.115 84.27L45.165 82.67H48.085V89H48.825V82H44.445L44.405 83.91C44.395 84.38 44.385 84.79 44.365 85.13C44.345 85.47 44.315 85.82 44.275 86.19C44.245 86.55 44.185 86.85 44.115 87.09C43.905 87.85 43.575 88.34 42.935 88.34C42.805 88.34 42.705 88.33 42.655 88.32V89ZM53.5204 89C55.0904 89 56.0304 88.13 56.0304 86.81C56.0304 86.16 55.8104 85.63 55.3604 85.22C54.9204 84.81 54.3104 84.61 53.5204 84.61H51.4304V82H50.6904V89H53.5204ZM51.4304 85.28H53.4704C54.6304 85.28 55.2904 85.84 55.2904 86.81C55.2904 87.78 54.6204 88.33 53.4704 88.33H51.4304V85.28ZM58.137 89V85.58H62.297V89H63.037V82H62.297V84.91H58.137V82H57.397V89H58.137ZM64.9845 89L65.8345 87.07H69.5045L70.3745 89H71.1545L68.0245 81.96H67.3345L64.2145 89H64.9845ZM67.6745 82.89L69.2645 86.42H66.0845L67.6745 82.89ZM72.5068 89L74.7168 85.85H76.8568V89H77.5968V82H74.4568C73.0868 82 72.2568 82.75 72.2568 83.9C72.2568 84.89 72.8568 85.61 73.9068 85.78L71.6468 89H72.5068ZM74.5068 85.18C73.5468 85.18 72.9868 84.73 72.9868 83.93C72.9868 83.13 73.5468 82.67 74.5068 82.67H76.8568V85.18H74.5068ZM87.4568 89.12C88.3968 89.12 89.1768 88.77 89.7968 88.08C90.4268 87.39 90.7368 86.53 90.7368 85.5C90.7368 84.47 90.4268 83.61 89.7968 82.92C89.1768 82.23 88.3968 81.88 87.4568 81.88C86.5868 81.88 85.8468 82.18 85.2368 82.79C84.6268 83.4 84.2768 84.16 84.1868 85.09H82.7468V82H82.0068V89H82.7468V85.76H84.1768C84.2368 86.73 84.5768 87.53 85.1868 88.17C85.7968 88.8 86.5568 89.12 87.4568 89.12ZM85.6468 87.62C85.1568 87.08 84.9168 86.37 84.9168 85.5C84.9168 84.63 85.1568 83.92 85.6468 83.38C86.1368 82.84 86.7368 82.57 87.4568 82.57C88.1768 82.57 88.7768 82.84 89.2568 83.38C89.7468 83.92 89.9868 84.63 89.9868 85.5C89.9868 86.37 89.7468 87.08 89.2568 87.62C88.7768 88.16 88.1768 88.43 87.4568 88.43C86.7368 88.43 86.1368 88.16 85.6468 87.62ZM95.6765 89C97.1065 89 97.9765 88.22 97.9765 87.05C97.9765 86.02 97.3765 85.33 96.4565 85.18C97.0265 84.97 97.3765 84.43 97.3765 83.7C97.3765 82.65 96.6065 82 95.3665 82H92.3365V89H95.6765ZM93.0765 85.61H95.5465C96.5865 85.61 97.1865 86.11 97.1865 86.96C97.1865 87.83 96.5865 88.33 95.5465 88.33H93.0765V85.61ZM93.0765 82.67H95.2465C96.1365 82.67 96.6465 83.08 96.6465 83.83C96.6465 84.56 96.1365 84.96 95.2465 84.96H93.0765V82.67ZM104.442 89V88.33H100.232V85.58H103.562V84.91H100.232V82.67H104.292V82H99.4923V89H104.442ZM104.929 89C104.979 89.01 105.079 89.01 105.209 89.01C106.259 88.97 106.809 88.42 107.089 87.23C107.289 86.4 107.349 85.56 107.389 84.27L107.439 82.67H110.359V89H111.099V82H106.719L106.679 83.91C106.669 84.38 106.659 84.79 106.639 85.13C106.619 85.47 106.589 85.82 106.549 86.19C106.519 86.55 106.459 86.85 106.389 87.09C106.179 87.85 105.849 88.34 105.209 88.34C105.079 88.34 104.979 88.33 104.929 88.32V89ZM113.584 89L117.964 83.22V89H118.694V82H118.044L113.694 87.76V82H112.964V89H113.584ZM121.3 89V85.91H123.5C124.9 85.91 125.74 85.13 125.74 83.94C125.74 82.78 124.9 82 123.5 82H120.56V89H121.3ZM121.3 82.67H123.45C124.44 82.67 125.01 83.13 125.01 83.96C125.01 84.77 124.44 85.24 123.45 85.24H121.3V82.67ZM127.85 89V85.58H132.01V89H132.75V82H132.01V84.91H127.85V82H127.11V89H127.85ZM134.697 89L135.547 87.07H139.217L140.087 89H140.867L137.737 81.96H137.047L133.927 89H134.697ZM137.387 82.89L138.977 86.42H135.797L137.387 82.89ZM142.22 89L144.43 85.85H146.57V89H147.31V82H144.17C142.8 82 141.97 82.75 141.97 83.9C141.97 84.89 142.57 85.61 143.62 85.78L141.36 89H142.22ZM144.22 85.18C143.26 85.18 142.7 84.73 142.7 83.93C142.7 83.13 143.26 82.67 144.22 82.67H146.57V85.18H144.22ZM151.72 82V89H152.46V85.44L156.17 89H157.21L153.24 85.2L156.68 82H155.7L152.46 85.04V82H151.72ZM158.404 82.92C157.734 83.61 157.404 84.47 157.404 85.5C157.404 86.53 157.734 87.4 158.404 88.09C159.074 88.78 159.914 89.12 160.924 89.12C161.934 89.12 162.764 88.78 163.434 88.09C164.104 87.4 164.444 86.53 164.444 85.5C164.444 84.47 164.104 83.61 163.434 82.92C162.764 82.23 161.934 81.88 160.924 81.88C159.914 81.88 159.074 82.23 158.404 82.92ZM158.954 87.59C158.424 87.03 158.154 86.33 158.154 85.5C158.154 84.67 158.424 83.97 158.954 83.41C159.484 82.85 160.144 82.57 160.924 82.57C161.704 82.57 162.364 82.85 162.894 83.41C163.424 83.97 163.694 84.67 163.694 85.5C163.694 86.33 163.424 87.03 162.894 87.59C162.364 88.15 161.704 88.43 160.924 88.43C160.144 88.43 159.484 88.15 158.954 87.59ZM166.771 89V83.12L169.081 86.18H169.531L171.821 83.12V89H172.551V82H171.831L169.301 85.39L166.771 82H166.041V89H166.771ZM175.158 89V82.67H179.168V89H179.908V82H174.418V89H175.158ZM181.859 89L182.709 87.07H186.379L187.249 89H188.029L184.899 81.96H184.209L181.089 89H181.859ZM184.549 82.89L186.139 86.42H182.959L184.549 82.89ZM189.948 89V85.58H194.108V89H194.848V82H194.108V84.91H189.948V82H189.208V89H189.948ZM197.335 89L201.715 83.22V89H202.445V82H201.795L197.445 87.76V82H196.715V89H197.335ZM204.611 89L206.821 85.85H208.961V89H209.701V82H206.561C205.191 82 204.361 82.75 204.361 83.9C204.361 84.89 204.961 85.61 206.011 85.78L203.751 89H204.611ZM206.611 85.18C205.651 85.18 205.091 84.73 205.091 83.93C205.091 83.13 205.651 82.67 206.611 82.67H208.961V85.18H206.611Z" fill="black"/>
<path d="M23.68 41.2729V72.5085H21.58L3.31 45.6249V72.5085H1V41.2729H3.03L21.3 68.1566V41.2729H23.68Z" fill="#414142"/>
<path d="M34.32 56.9258C34.32 48.0114 41.32 40.8518 50.28 40.8518C59.17 40.8518 66.24 48.0114 66.24 56.9258C66.24 65.8403 59.24 72.9999 50.28 72.9999C41.39 72.9999 34.32 65.8403 34.32 56.9258ZM63.86 56.9258C63.86 49.2749 57.91 43.098 50.28 43.098C42.65 43.098 36.7 49.2047 36.7 56.9258C36.7 64.5768 42.65 70.7537 50.28 70.7537C57.91 70.7537 63.86 64.5768 63.86 56.9258Z" fill="#414142"/>
<path d="M72.33 41.2729H74.92L85.14 69.4201L95.36 41.2729H97.88L86.33 72.5085H83.88L72.33 41.2729Z" fill="#414142"/>
<path d="M109.43 41.2729V72.5085H107.12V41.2729H109.43Z" fill="#414142"/>
<path d="M139.74 72.5085L124.2 57.1364V72.5085H121.89V41.2729H124.2V55.8028L139.25 41.2729H142.4L126.79 56.4345L142.89 72.5085H139.74Z" fill="#414142"/>
<path d="M147.51 56.9258C147.51 48.0114 154.51 40.8518 163.47 40.8518C172.36 40.8518 179.43 48.0114 179.43 56.9258C179.43 65.8403 172.43 72.9999 163.47 72.9999C154.51 72.9999 147.51 65.8403 147.51 56.9258ZM177.05 56.9258C177.05 49.2749 171.1 43.098 163.47 43.098C155.84 43.098 149.89 49.2749 149.89 56.9258C149.89 64.5768 155.84 70.7537 163.47 70.7537C171.1 70.7537 177.05 64.5768 177.05 56.9258Z" fill="#414142"/>
<path d="M185.45 41.2729H188.04L198.26 69.4201L208.48 41.2729H211L199.45 72.5085H197L185.45 41.2729Z" fill="#414142"/>
<path d="M108.38 0L100.89 2.80769L98.37 0H108.38Z" fill="url(#paint0_linear)"/>
<path d="M100.89 2.80786L92.49 8.98478H108.38L100.89 2.80786Z" fill="url(#paint1_linear)"/>
<path d="M92.49 3.15869L86.33 8.98465H92.49V3.15869Z" fill="url(#paint2_linear)"/>
<path d="M98.37 0H95.78L92.49 3.15865V8.98461L100.89 2.80769L98.37 0Z" fill="url(#paint3_linear)"/>
<path d="M108.38 0L115.8 2.80769L118.32 0H108.38Z" fill="url(#paint4_linear)"/>
<path d="M92.49 8.98462H86.33L108.38 30.5337L92.49 8.98462Z" fill="url(#paint5_linear)"/>
<path d="M92.49 8.98462L108.38 30.5337V8.98462H92.49Z" fill="url(#paint6_linear)"/>
<path d="M124.27 8.98462L108.38 30.5337L130.36 8.98462H124.27Z" fill="url(#paint7_linear)"/>
<path d="M108.38 8.98462H108.31V30.4635L108.38 30.5337L124.27 8.98462H108.38Z" fill="url(#paint8_linear)"/>
<path d="M115.87 2.80786L124.27 8.98478H108.38L115.87 2.80786Z" fill="url(#paint9_linear)"/>
<path d="M108.38 0L100.89 2.80769L108.38 8.98461L115.87 2.80769L108.38 0Z" fill="url(#paint10_linear)"/>
<path d="M124.27 3.15869V8.98465H130.36L124.27 3.15869Z" fill="url(#paint11_linear)"/>
<path d="M120.91 0H118.32L115.87 2.80769L124.27 8.98461V3.15865L120.91 0Z" fill="url(#paint12_linear)"/>
<defs>
<linearGradient id="paint0_linear" x1="103.315" y1="-2.55879" x2="103.43" y2="2.13116" gradientUnits="userSpaceOnUse">
<stop stop-color="#EE396B"/>
<stop offset="1" stop-color="#F9CDE0"/>
</linearGradient>
<linearGradient id="paint1_linear" x1="103.439" y1="10.519" x2="83.2134" y2="-3.23121" gradientUnits="userSpaceOnUse">
<stop stop-color="#E85868"/>
<stop offset="0.1506" stop-color="#E62E5F"/>
<stop offset="1" stop-color="#87267B"/>
</linearGradient>
<linearGradient id="paint2_linear" x1="87.9908" y1="4.10608" x2="92.2694" y2="10.0798" gradientUnits="userSpaceOnUse">
<stop stop-color="#EE396B"/>
<stop offset="1" stop-color="#F9CDE0"/>
</linearGradient>
<linearGradient id="paint3_linear" x1="92.4716" y1="4.48971" x2="100.87" y2="4.48971" gradientUnits="userSpaceOnUse">
<stop stop-color="#EE396B"/>
<stop offset="1" stop-color="#F09EC4"/>
</linearGradient>
<linearGradient id="paint4_linear" x1="113.267" y1="-2.80313" x2="113.381" y2="1.88542" gradientUnits="userSpaceOnUse">
<stop stop-color="#EE396B"/>
<stop offset="1" stop-color="#F9CDE0"/>
</linearGradient>
<linearGradient id="paint5_linear" x1="91.8611" y1="6.33479" x2="97.4174" y2="19.8679" gradientUnits="userSpaceOnUse">
<stop stop-color="#EE396B"/>
<stop offset="1" stop-color="#F9CDE0"/>
</linearGradient>
<linearGradient id="paint6_linear" x1="102.382" y1="12.8009" x2="97.0838" y2="31.3966" gradientUnits="userSpaceOnUse">
<stop stop-color="#E62E5F"/>
<stop offset="1" stop-color="#87267B"/>
</linearGradient>
<linearGradient id="paint7_linear" x1="133.135" y1="4.75027" x2="114.104" y2="21.6096" gradientUnits="userSpaceOnUse">
<stop stop-color="#EE396B"/>
<stop offset="1" stop-color="#F9CDE0"/>
</linearGradient>
<linearGradient id="paint8_linear" x1="116.125" y1="9.68205" x2="111.238" y2="34.052" gradientUnits="userSpaceOnUse">
<stop stop-color="#E62E5F"/>
<stop offset="1" stop-color="#87267B"/>
</linearGradient>
<linearGradient id="paint9_linear" x1="115.405" y1="9.62129" x2="140.507" y2="-10.4562" gradientUnits="userSpaceOnUse">
<stop stop-color="#E85868"/>
<stop offset="0.1506" stop-color="#E62E5F"/>
<stop offset="1" stop-color="#87267B"/>
</linearGradient>
<linearGradient id="paint10_linear" x1="108.356" y1="-0.389216" x2="108.356" y2="5.13709" gradientUnits="userSpaceOnUse">
<stop stop-color="#EE396B"/>
<stop offset="0.265" stop-color="#F05A80"/>
<stop offset="1" stop-color="#F09EC4"/>
</linearGradient>
<linearGradient id="paint11_linear" x1="124.241" y1="6.07834" x2="130.392" y2="6.07834" gradientUnits="userSpaceOnUse">
<stop stop-color="#EE396B"/>
<stop offset="1" stop-color="#F9CDE0"/>
</linearGradient>
<linearGradient id="paint12_linear" x1="121.017" y1="-0.563714" x2="119.869" y2="6.98938" gradientUnits="userSpaceOnUse">
<stop stop-color="#EE396B"/>
<stop offset="1" stop-color="#F09EC4"/>
</linearGradient>
</defs>
</svg>
