<svg width="210" height="73" viewBox="0 0 210 73" fill="none" xmlns="http://www.w3.org/2000/svg">
<path d="M22.68 41.2729V72.5085H20.58L2.31 45.6249V72.5085H0V41.2729H2.03L20.3 68.1566V41.2729H22.68Z" fill="#414142"/>
<path d="M33.32 56.9258C33.32 48.0114 40.32 40.8518 49.28 40.8518C58.17 40.8518 65.24 48.0114 65.24 56.9258C65.24 65.8403 58.24 72.9999 49.28 72.9999C40.39 72.9999 33.32 65.8403 33.32 56.9258ZM62.86 56.9258C62.86 49.2749 56.91 43.098 49.28 43.098C41.65 43.098 35.7 49.2047 35.7 56.9258C35.7 64.5768 41.65 70.7537 49.28 70.7537C56.91 70.7537 62.86 64.5768 62.86 56.9258Z" fill="#414142"/>
<path d="M71.33 41.2729H73.92L84.14 69.4201L94.36 41.2729H96.88L85.33 72.5085H82.88L71.33 41.2729Z" fill="#414142"/>
<path d="M108.43 41.2729V72.5085H106.12V41.2729H108.43Z" fill="#414142"/>
<path d="M138.74 72.5085L123.2 57.1364V72.5085H120.89V41.2729H123.2V55.8028L138.25 41.2729H141.4L125.79 56.4345L141.89 72.5085H138.74Z" fill="#414142"/>
<path d="M146.51 56.9258C146.51 48.0114 153.51 40.8518 162.47 40.8518C171.36 40.8518 178.43 48.0114 178.43 56.9258C178.43 65.8403 171.43 72.9999 162.47 72.9999C153.51 72.9999 146.51 65.8403 146.51 56.9258ZM176.05 56.9258C176.05 49.2749 170.1 43.098 162.47 43.098C154.84 43.098 148.89 49.2749 148.89 56.9258C148.89 64.5768 154.84 70.7537 162.47 70.7537C170.1 70.7537 176.05 64.5768 176.05 56.9258Z" fill="#414142"/>
<path d="M184.45 41.2729H187.04L197.26 69.4201L207.48 41.2729H210L198.45 72.5085H196L184.45 41.2729Z" fill="#414142"/>
<path d="M107.38 0L99.89 2.80769L97.37 0H107.38Z" fill="url(#paint0_linear)"/>
<path d="M99.89 2.80786L91.49 8.98478H107.38L99.89 2.80786Z" fill="url(#paint1_linear)"/>
<path d="M91.49 3.15869L85.33 8.98465H91.49V3.15869Z" fill="url(#paint2_linear)"/>
<path d="M97.37 0H94.78L91.49 3.15865V8.98461L99.89 2.80769L97.37 0Z" fill="url(#paint3_linear)"/>
<path d="M107.38 0L114.8 2.80769L117.32 0H107.38Z" fill="url(#paint4_linear)"/>
<path d="M91.49 8.98462H85.33L107.38 30.5337L91.49 8.98462Z" fill="url(#paint5_linear)"/>
<path d="M91.49 8.98462L107.38 30.5337V8.98462H91.49Z" fill="url(#paint6_linear)"/>
<path d="M123.27 8.98462L107.38 30.5337L129.36 8.98462H123.27Z" fill="url(#paint7_linear)"/>
<path d="M107.38 8.98462H107.31V30.4635L107.38 30.5337L123.27 8.98462H107.38Z" fill="url(#paint8_linear)"/>
<path d="M114.87 2.80786L123.27 8.98478H107.38L114.87 2.80786Z" fill="url(#paint9_linear)"/>
<path d="M107.38 0L99.89 2.80769L107.38 8.98461L114.87 2.80769L107.38 0Z" fill="url(#paint10_linear)"/>
<path d="M123.27 3.15869V8.98465H129.36L123.27 3.15869Z" fill="url(#paint11_linear)"/>
<path d="M119.91 0H117.32L114.87 2.80769L123.27 8.98461V3.15865L119.91 0Z" fill="url(#paint12_linear)"/>
<defs>
<linearGradient id="paint0_linear" x1="102.315" y1="-2.55879" x2="102.43" y2="2.13116" gradientUnits="userSpaceOnUse">
<stop stop-color="#EE396B"/>
<stop offset="1" stop-color="#F9CDE0"/>
</linearGradient>
<linearGradient id="paint1_linear" x1="102.439" y1="10.519" x2="82.2134" y2="-3.23121" gradientUnits="userSpaceOnUse">
<stop stop-color="#E85868"/>
<stop offset="0.1506" stop-color="#E62E5F"/>
<stop offset="1" stop-color="#87267B"/>
</linearGradient>
<linearGradient id="paint2_linear" x1="86.9908" y1="4.10608" x2="91.2694" y2="10.0798" gradientUnits="userSpaceOnUse">
<stop stop-color="#EE396B"/>
<stop offset="1" stop-color="#F9CDE0"/>
</linearGradient>
<linearGradient id="paint3_linear" x1="91.4716" y1="4.48971" x2="99.8699" y2="4.48971" gradientUnits="userSpaceOnUse">
<stop stop-color="#EE396B"/>
<stop offset="1" stop-color="#F09EC4"/>
</linearGradient>
<linearGradient id="paint4_linear" x1="112.267" y1="-2.80313" x2="112.381" y2="1.88542" gradientUnits="userSpaceOnUse">
<stop stop-color="#EE396B"/>
<stop offset="1" stop-color="#F9CDE0"/>
</linearGradient>
<linearGradient id="paint5_linear" x1="90.8611" y1="6.33479" x2="96.4174" y2="19.8679" gradientUnits="userSpaceOnUse">
<stop stop-color="#EE396B"/>
<stop offset="1" stop-color="#F9CDE0"/>
</linearGradient>
<linearGradient id="paint6_linear" x1="101.382" y1="12.8009" x2="96.0838" y2="31.3966" gradientUnits="userSpaceOnUse">
<stop stop-color="#E62E5F"/>
<stop offset="1" stop-color="#87267B"/>
</linearGradient>
<linearGradient id="paint7_linear" x1="132.135" y1="4.75027" x2="113.104" y2="21.6096" gradientUnits="userSpaceOnUse">
<stop stop-color="#EE396B"/>
<stop offset="1" stop-color="#F9CDE0"/>
</linearGradient>
<linearGradient id="paint8_linear" x1="115.125" y1="9.68205" x2="110.238" y2="34.052" gradientUnits="userSpaceOnUse">
<stop stop-color="#E62E5F"/>
<stop offset="1" stop-color="#87267B"/>
</linearGradient>
<linearGradient id="paint9_linear" x1="114.405" y1="9.62129" x2="139.507" y2="-10.4562" gradientUnits="userSpaceOnUse">
<stop stop-color="#E85868"/>
<stop offset="0.1506" stop-color="#E62E5F"/>
<stop offset="1" stop-color="#87267B"/>
</linearGradient>
<linearGradient id="paint10_linear" x1="107.356" y1="-0.389216" x2="107.356" y2="5.13709" gradientUnits="userSpaceOnUse">
<stop stop-color="#EE396B"/>
<stop offset="0.265" stop-color="#F05A80"/>
<stop offset="1" stop-color="#F09EC4"/>
</linearGradient>
<linearGradient id="paint11_linear" x1="123.241" y1="6.07834" x2="129.392" y2="6.07834" gradientUnits="userSpaceOnUse">
<stop stop-color="#EE396B"/>
<stop offset="1" stop-color="#F9CDE0"/>
</linearGradient>
<linearGradient id="paint12_linear" x1="120.017" y1="-0.563714" x2="118.869" y2="6.98938" gradientUnits="userSpaceOnUse">
<stop stop-color="#EE396B"/>
<stop offset="1" stop-color="#F09EC4"/>
</linearGradient>
</defs>
</svg>
