<svg width="17" height="28" viewBox="0 0 17 28" fill="white" xmlns="http://www.w3.org/2000/svg">
<path d="M6.89239 19.4505C4.82511 19.2349 2.96114 18.7258 1.36529 17.4777C1.16728 17.3224 0.96284 17.1727 0.782141 16.9992C0.0836425 16.3284 0.013262 15.5601 0.565972 14.7683C1.03881 14.0907 1.83254 13.9095 2.65756 14.2985C2.81731 14.3739 2.96952 14.4681 3.11531 14.5692C6.08944 16.6127 10.1751 16.6691 13.1604 14.661C13.4562 14.4343 13.7724 14.2494 14.1388 14.155C14.8512 13.972 15.5157 14.2337 15.898 14.8571C16.3348 15.569 16.3292 16.2639 15.7911 16.8166C14.9655 17.6639 13.9726 18.277 12.8694 18.7048C11.8263 19.1093 10.6837 19.3129 9.55289 19.448C9.72353 19.6338 9.80397 19.7251 9.91065 19.8323C11.4462 21.3751 12.9884 22.9115 14.5189 24.459C15.0403 24.9863 15.1493 25.6401 14.8621 26.2534C14.5482 26.9237 13.8455 27.3647 13.1565 27.3175C12.72 27.2874 12.3796 27.0701 12.0771 26.7654C10.9183 25.5993 9.73777 24.4548 8.60247 23.2667C8.27207 22.9213 8.11316 22.9866 7.82158 23.2866C6.65584 24.4867 5.4711 25.6683 4.27938 26.8433C3.74426 27.3709 3.10749 27.4658 2.48691 27.1645C1.82723 26.8447 1.40747 26.1713 1.43986 25.4946C1.46221 25.0369 1.68731 24.6872 2.00151 24.3735C3.52111 22.8562 5.03653 21.3349 6.5525 19.815C6.65276 19.7139 6.74633 19.6067 6.89239 19.4505Z"/>
<path d="M8.1517 14.165C4.46371 14.1524 1.43958 11.095 1.46108 7.40117C1.48231 3.66653 4.50839 0.656929 8.23269 0.667263C11.9645 0.677317 14.9599 3.73021 14.9412 7.50367C14.9222 11.19 11.8771 14.1778 8.1517 14.165ZM11.5034 7.4101C11.497 5.57602 10.0363 4.11591 8.20588 4.11423C6.36007 4.11228 4.88627 5.59892 4.90051 7.44976C4.9142 9.27686 6.38744 10.7266 8.22292 10.7199C10.0528 10.7135 11.5096 9.24391 11.5034 7.4101Z"/>
</svg>
