<svg width="271" height="24" viewBox="0 0 271 24" fill="none" xmlns="http://www.w3.org/2000/svg">
<path d="M256.014 13.4841H258.273V4.22502C259.074 4.07492 259.903 3.96235 260.761 3.8873C261.619 3.79349 262.525 3.74658 263.478 3.74658C264.47 3.74658 265.423 3.83101 266.338 3.99987C267.254 4.16873 268.054 4.4783 268.741 4.92859C269.427 5.37888 269.971 5.99803 270.371 6.78603C270.79 7.57404 271 8.58719 271 9.82549C271 10.97 270.79 11.9456 270.371 12.7524C269.971 13.5404 269.427 14.1877 268.741 14.6942C268.073 15.2008 267.311 15.5667 266.453 15.7918C265.595 16.017 264.718 16.1295 263.822 16.1295C263.555 16.1295 263.212 16.1295 262.792 16.1295C262.392 16.1108 262.087 16.0826 261.877 16.0451V17.6774H266.453V20.2384H261.877V23.7282H258.273V20.2384H256.014V17.6774H258.273V16.0451H256.014V13.4841ZM263.793 6.84232C263.412 6.84232 263.049 6.86108 262.706 6.89861C262.363 6.91737 262.087 6.94551 261.877 6.98304V13.3434C262.029 13.3809 262.277 13.4184 262.62 13.4559C262.964 13.4747 263.212 13.4841 263.364 13.4841C263.879 13.4841 264.365 13.4184 264.823 13.2871C265.299 13.1558 265.709 12.9494 266.052 12.6679C266.396 12.3865 266.663 12.03 266.853 11.5985C267.063 11.1482 267.168 10.6135 267.168 9.99434C267.168 8.84986 266.853 8.04309 266.224 7.57404C265.595 7.08623 264.784 6.84232 263.793 6.84232Z" fill="#4EC385"/>
<path d="M207.309 11.1507C207.309 9.88835 207.417 9.08737 210.091 7.13606C212.304 5.52059 219.398 0 219.398 0V9.21564H224.793V22.4793H208.994C208.067 22.4793 207.309 21.7375 207.309 20.8312L207.309 11.1507Z" fill="#FFCF01"/>
<path d="M219.398 9.21582V14.5556L209.484 21.1595L222.018 17.1718V9.21582H219.398Z" fill="#D3AB07"/>
<path d="M214.868 8.9388C215.448 8.26342 216.294 8.0249 216.759 8.4064C217.224 8.7879 217.131 9.64482 216.551 10.3203C215.972 10.9957 215.125 11.2339 214.66 10.8524C214.195 10.4709 214.288 9.6141 214.868 8.9388Z" fill="black"/>
<path d="M164.794 1.24878C166.548 1.24878 168.217 1.65676 169.714 2.38665C169.949 2.49418 170.185 2.62295 170.419 2.75183L169.392 3.67532L167.853 2.06486L165.201 4.42645L163.64 2.73014L158.763 7.13187L161.885 10.5887L160.666 11.662L163.747 15.1189L162.528 16.1917L166.934 21.1087L169.542 18.7039L171.81 21.2811C171.361 21.6247 170.869 21.9689 170.335 22.269C168.709 23.1921 166.826 23.7278 164.816 23.7278C158.634 23.7278 153.608 18.6832 153.608 12.4785C153.586 6.31613 158.613 1.24878 164.794 1.24878ZM162.741 11.7911L165.414 9.38627L167.811 12.0701L165.136 14.4747L162.741 11.7911ZM164.645 16.429L167.297 14.0028L169.714 16.6864L167.04 19.0914L164.645 16.429ZM160.838 7.21805L163.511 4.8132L165.907 7.49704L163.233 9.90178L160.838 7.21805ZM165.735 5.92938L167.725 4.12588L169.522 6.12276L167.532 7.94749L165.735 5.92938ZM169.286 14.1957L171.275 12.3921L173.072 14.4099L171.082 16.2147L169.286 14.1957ZM171.04 18.2542L173.029 16.4503L174.825 18.447L172.836 20.2715L171.04 18.2542ZM171.853 8.97828L173.179 7.7758L174.376 9.10751L173.051 10.3095L171.853 8.97828ZM170.142 5.00611L171.468 3.78251L172.666 5.13499L171.339 6.33736L170.142 5.00611ZM173.542 12.9508L174.868 11.7484L176.088 13.0797L174.741 14.2817L173.542 12.9508ZM167.575 9.96616L169.564 8.16255L171.361 10.159L169.372 11.9629L167.575 9.96616Z" fill="#036CB5"/>
<path d="M110.984 4.69067H101.324V20.8114H110.984V4.69067Z" fill="#FF5F00"/>
<path d="M102.319 12.7524C102.317 11.2001 102.662 9.66791 103.326 8.2717C103.99 6.8755 104.956 5.65189 106.151 4.69349C104.671 3.50493 102.893 2.76584 101.021 2.56068C99.1492 2.35552 97.2585 2.69258 95.5651 3.53332C93.8718 4.37407 92.4441 5.68459 91.4453 7.31509C90.4465 8.9456 89.9168 10.8303 89.9168 12.7538C89.9168 14.6773 90.4465 16.5621 91.4453 18.1926C92.4441 19.8231 93.8718 21.1336 95.5651 21.9743C97.2585 22.8151 99.1492 23.1521 101.021 22.947C102.893 22.7418 104.671 22.0027 106.151 20.8142C104.956 19.8555 103.989 18.6314 103.325 17.2347C102.661 15.8379 102.317 14.3052 102.319 12.7524Z" fill="#EB001B"/>
<path d="M122.387 12.752C122.387 14.6757 121.857 16.5605 120.858 18.1911C119.859 19.8217 118.431 21.1322 116.738 21.9728C115.044 22.8134 113.153 23.1502 111.281 22.9448C109.409 22.7393 107.631 21.9999 106.151 20.811C107.346 19.8517 108.312 18.6278 108.976 17.2315C109.64 15.8352 109.985 14.303 109.985 12.7506C109.985 11.1982 109.64 9.66604 108.976 8.26976C108.312 6.87348 107.346 5.64954 106.151 4.69028C107.631 3.50135 109.409 2.7619 111.281 2.55645C113.153 2.35099 115.044 2.68783 116.738 3.52846C118.431 4.36908 119.859 5.67958 120.858 7.31014C121.857 8.9407 122.387 10.8255 122.387 12.7492V12.752Z" fill="#F79E1B"/>
<path d="M20.6779 20.9792L23.6493 4.04102H28.4011L25.428 20.9792H20.6779Z" fill="#0058A0"/>
<path d="M42.6636 4.45781C41.7221 4.11485 40.247 3.74658 38.4044 3.74658C33.7087 3.74658 30.401 6.04381 30.3729 9.33649C30.3465 11.7703 32.7341 13.1279 34.5369 13.9384C36.3865 14.7687 37.0084 15.2979 36.9997 16.0397C36.988 17.175 35.5225 17.6938 34.1565 17.6938C32.2545 17.6938 31.2439 17.4371 29.6832 16.8047L29.0711 16.5354L28.4041 20.3268C29.5143 20.7996 31.5666 21.2094 33.6977 21.2305C38.693 21.2305 41.9359 18.9595 41.9726 15.4436C41.9907 13.5166 40.7246 12.0503 37.9829 10.8414C36.3217 10.0578 35.3044 9.53507 35.3154 8.74142C35.3154 8.03733 36.1764 7.28457 38.0367 7.28457C39.5907 7.26121 40.7162 7.59021 41.5932 7.9335L42.0191 8.12915L42.6636 4.45781Z" fill="#0058A0"/>
<path d="M54.8495 4.05713H51.1774C50.0398 4.05713 49.1885 4.35888 48.6889 5.46175L41.6313 20.9846H46.6212C46.6212 20.9846 47.4372 18.8973 47.6218 18.4391C48.1672 18.4391 53.0146 18.4463 53.7079 18.4463C53.8502 19.0391 54.286 20.9842 54.286 20.9842H58.6955L54.8495 4.05713ZM48.9898 14.9745C49.3829 13.9985 50.8831 10.2395 50.8831 10.2395C50.8551 10.2846 51.2732 9.25898 51.5134 8.62302L51.8346 10.0834C51.8346 10.0834 52.7447 14.1266 52.9348 14.9745H48.9898Z" fill="#0058A0"/>
<path d="M16.6922 4.05322L12.0396 15.6039L11.544 13.2567C10.6779 10.5507 7.97941 7.61911 4.96259 6.15122L9.21679 20.9644L14.2448 20.9589L21.7259 4.05322H16.6922Z" fill="#0058A0"/>
<path d="M7.72357 4.04346H0.0607839L0 4.39583C5.96184 5.79785 9.90645 9.18625 11.5439 13.2573L9.87772 5.47338C9.58984 4.40102 8.75556 4.08077 7.72357 4.04346Z" fill="#FAA61A"/>
</svg>
