<svg width="31" height="31" viewBox="0 0 31 31" fill="none" xmlns="http://www.w3.org/2000/svg">
<path d="M29.5638 22.821V27.1214C29.5654 27.5206 29.4835 27.9158 29.3232 28.2816C29.163 28.6474 28.928 28.9757 28.6332 29.2456C28.3385 29.5155 27.9905 29.721 27.6116 29.8489C27.2327 29.9768 26.8312 30.0243 26.4328 29.9884C22.0133 29.5091 17.7681 28.0018 14.0382 25.5876C10.568 23.3867 7.62595 20.4503 5.42086 16.9867C2.99361 13.2471 1.48309 8.98934 1.01166 4.55847C0.975767 4.16207 1.02297 3.76255 1.15025 3.38535C1.27754 3.00815 1.48212 2.66153 1.75098 2.36757C2.01983 2.07361 2.34706 1.83875 2.71185 1.67793C3.07663 1.51711 3.47096 1.43386 3.86974 1.43349H8.17841C8.87542 1.42664 9.55114 1.67299 10.0796 2.12662C10.6081 2.58025 10.9533 3.21021 11.0509 3.89907C11.2327 5.27531 11.57 6.62659 12.0562 7.92715C12.2494 8.44022 12.2913 8.99783 12.1767 9.5339C12.0622 10.07 11.7961 10.562 11.4099 10.9518L9.58591 12.7723C11.6305 16.3611 14.6076 19.3325 18.2033 21.3732L20.0273 19.5527C20.4177 19.1672 20.9108 18.9016 21.4478 18.7873C21.9849 18.673 22.5436 18.7147 23.0577 18.9076C24.3607 19.3929 25.7146 19.7295 27.0935 19.911C27.7911 20.0093 28.4283 20.36 28.8838 20.8965C29.3392 21.4331 29.5813 22.118 29.5638 22.821Z" stroke="#E5285B" stroke-width="2" stroke-linecap="round" stroke-linejoin="round"/>
<path d="M19 4V11H26" stroke="black" stroke-width="2" stroke-linejoin="round"/>
<path d="M29 1L19 11" stroke="black" stroke-width="2" stroke-linejoin="round"/>
</svg>
