<svg width="49" height="22" viewBox="0 0 49 22" fill="#C4C4C4" xmlns="http://www.w3.org/2000/svg">
<path d="M47.5608 0H16.237C15.7031 0 15.2703 0.432767 15.2703 0.966664V2.78976H6.05675C5.52285 2.78976 5.09009 3.22253 5.09009 3.75642C5.09009 4.29032 5.52285 4.72309 6.05675 4.72309H15.2703V17.2769H9.76351C9.22961 17.2769 8.79685 17.7097 8.79685 18.2436C8.79685 18.7775 9.22961 19.2102 9.76351 19.2102H15.2703V21.0333C15.2703 21.5672 15.7031 22 16.237 22H47.5608C48.0947 22 48.5275 21.5672 48.5275 21.0333V0.966664C48.5275 0.432767 48.0947 0 47.5608 0ZM45.1761 1.93333L31.9003 12.8316L18.685 1.93333H45.1761ZM46.5941 20.0668H17.2038V3.21769L31.2839 14.8292C31.4625 14.9764 31.6807 15.0501 31.8989 15.0501C32.1165 15.0501 32.3341 14.977 32.5123 14.8306L46.5941 3.27067V20.0668Z"/>
<path d="M11.3426 9.93555H0.966663C0.432766 9.93555 0 10.3683 0 10.9022C0 11.4361 0.432766 11.8689 0.966663 11.8689H11.3426C11.8765 11.8689 12.3093 11.4361 12.3093 10.9022C12.3094 10.3683 11.8765 9.93555 11.3426 9.93555Z"/>
<path d="M6.57346 17.2769H6.05681C5.52292 17.2769 5.09015 17.7096 5.09015 18.2435C5.09015 18.7774 5.52292 19.2102 6.05681 19.2102H6.57346C7.10736 19.2102 7.54012 18.7774 7.54012 18.2435C7.54012 17.7096 7.10736 17.2769 6.57346 17.2769Z"/>
</svg>
