<svg width="28" height="22" viewBox="0 0 28 22" fill="white" xmlns="http://www.w3.org/2000/svg">
<path d="M27.5207 2.56351C26.5106 2.99852 25.4267 3.29355 24.288 3.42526C25.4507 2.74852 26.3408 1.67513 26.7626 0.400018C25.672 1.02672 24.468 1.48178 23.1852 1.72847C22.158 0.663399 20.6968 0 19.0762 0C15.967 0 13.446 2.45019 13.446 5.47042C13.446 5.89877 13.4957 6.31713 13.5918 6.71719C8.9134 6.48881 4.76494 4.31033 1.98844 1.00005C1.50309 1.80679 1.22699 2.74682 1.22699 3.75027C1.22699 5.64876 2.22167 7.32389 3.73084 8.30393C2.80818 8.27394 1.94041 8.02726 1.18071 7.61721V7.68555C1.18071 10.3358 3.12204 12.5476 5.69617 13.051C5.22455 13.1743 4.72723 13.2427 4.21274 13.2427C3.84919 13.2427 3.49761 13.2077 3.1529 13.141C3.86973 15.3161 5.94828 16.8979 8.41097 16.9413C6.48506 18.4081 4.05668 19.2798 1.4191 19.2798C0.964651 19.2798 0.517019 19.2531 0.0762939 19.2048C2.56813 20.7599 5.52644 21.6667 8.70595 21.6667C19.0626 21.6667 24.7236 13.3294 24.7236 6.09882L24.7048 5.39044C25.8109 4.62366 26.7678 3.66027 27.5207 2.56351Z"/>
</svg>
