<svg width="11" height="13" viewBox="0 0 11 13" fill="none" xmlns="http://www.w3.org/2000/svg">
<path d="M9.02433 8.86311L7.15518 7.98751C6.97876 7.90486 6.86942 7.7386 6.86942 7.5538V6.93403C6.91436 6.8828 6.96132 6.82434 7.00995 6.7596C7.25244 6.43871 7.44663 6.08169 7.58784 5.69637C7.8642 5.57789 8.0433 5.32206 8.0433 5.03323V4.3C8.0433 4.12337 7.97287 3.9524 7.84777 3.81883V2.8436C7.85884 2.74271 7.90177 2.14243 7.43859 1.64743C7.03645 1.2178 6.38444 1 5.5 1C4.61556 1 3.96322 1.2178 3.56141 1.64711C3.09823 2.14243 3.14116 2.74271 3.15223 2.8436V3.81883C3.02713 3.9524 2.9567 4.12369 2.9567 4.3V5.03323C2.9567 5.25637 3.06503 5.46443 3.2495 5.60334C3.4286 6.26837 3.80391 6.76934 3.93471 6.93026V7.53683C3.93471 7.7144 3.83141 7.8772 3.66539 7.96206L1.91999 8.85431C1.3525 9.1444 1 9.70069 1 10.3063V10.9C1 11.7699 3.94343 12 5.5 12C7.05657 12 10 11.7699 10 10.9V10.3421C9.99966 9.71169 9.62603 9.14503 9.02433 8.86311Z" stroke="white" stroke-width="1.5" stroke-miterlimit="10"/>
</svg>
