<svg width="28" height="16" viewBox="0 0 28 16" fill="white" xmlns="http://www.w3.org/2000/svg">
<path d="M27.1918 13.8806C27.1595 13.812 27.1294 13.7551 27.1014 13.7095C26.6388 12.888 25.7546 11.8796 24.4495 10.6841L24.422 10.6568L24.4082 10.6433L24.3942 10.6296H24.3802C23.7879 10.0729 23.4128 9.69859 23.2557 9.50696C22.9683 9.14191 22.9039 8.7724 23.061 8.39801C23.172 8.11514 23.5889 7.51775 24.3106 6.60503C24.6903 6.12132 24.9909 5.73365 25.213 5.44157C26.8144 3.34257 27.5087 2.00128 27.2957 1.41717L27.213 1.28067C27.1574 1.1985 27.0139 1.12332 26.7828 1.05476C26.5511 0.986344 26.255 0.97503 25.8939 1.02063L21.8954 1.04786C21.8306 1.02523 21.7381 1.02734 21.6176 1.05476C21.4973 1.08219 21.4371 1.09595 21.4371 1.09595L21.3675 1.13023L21.3122 1.17141C21.266 1.19864 21.215 1.24654 21.1595 1.315C21.1042 1.38323 21.0579 1.46329 21.021 1.55453C20.5856 2.65874 20.0907 3.68537 19.5352 4.63438C19.1927 5.20027 18.8781 5.69069 18.5909 6.10593C18.304 6.52104 18.0633 6.82687 17.8691 7.02292C17.6746 7.21915 17.499 7.37636 17.3414 7.49512C17.184 7.61393 17.0638 7.66412 16.9806 7.64576C16.8972 7.6274 16.8187 7.60918 16.7443 7.59096C16.6148 7.50878 16.5106 7.39703 16.4321 7.25559C16.3532 7.11415 16.3001 6.93614 16.2724 6.72168C16.2447 6.50708 16.2284 6.3225 16.2237 6.1673C16.2194 6.0123 16.2214 5.79305 16.2308 5.51018C16.2404 5.22716 16.2447 5.03567 16.2447 4.93528C16.2447 4.58845 16.2516 4.21204 16.2654 3.80595C16.2794 3.39986 16.2907 3.07811 16.3002 2.84107C16.3096 2.60379 16.314 2.35276 16.314 2.08811C16.314 1.82345 16.2976 1.6159 16.2654 1.46526C16.2335 1.31481 16.1845 1.16877 16.1199 1.02719C16.055 0.885757 15.96 0.776349 15.8353 0.698679C15.7104 0.621105 15.5551 0.559544 15.3702 0.513805C14.8796 0.404349 14.2549 0.345137 13.4957 0.335932C11.7742 0.317713 10.668 0.427314 10.1774 0.66459C9.98302 0.764842 9.80713 0.901818 9.64986 1.07509C9.4832 1.27593 9.45996 1.38553 9.58027 1.40356C10.1357 1.48559 10.5289 1.68182 10.7604 1.99207L10.8438 2.15647C10.9086 2.27509 10.9734 2.48508 11.0382 2.78617C11.103 3.08726 11.1447 3.42033 11.1631 3.78519C11.2093 4.45147 11.2093 5.02182 11.1631 5.49627C11.1168 5.97092 11.073 6.34043 11.0312 6.60508C10.9895 6.86973 10.927 7.08419 10.8438 7.2484C10.7604 7.41266 10.7049 7.51305 10.6771 7.54949C10.6493 7.58593 10.6261 7.60889 10.6078 7.61791C10.4875 7.66336 10.3623 7.68651 10.2328 7.68651C10.1031 7.68651 9.94587 7.62256 9.76078 7.49474C9.57574 7.36692 9.38371 7.19134 9.18466 6.96773C8.98562 6.74407 8.76115 6.43152 8.51114 6.03004C8.26133 5.62855 8.00213 5.15405 7.7337 4.60652L7.51161 4.20945C7.37277 3.954 7.18311 3.58205 6.94244 3.09393C6.70163 2.60562 6.48878 2.13327 6.30374 1.67698C6.22977 1.48535 6.11865 1.33945 5.97058 1.23906L5.90109 1.19787C5.85489 1.16144 5.78073 1.12275 5.67899 1.08151C5.57711 1.04033 5.47081 1.0108 5.35964 0.992625L1.55538 1.01986C1.16664 1.01986 0.902869 1.10668 0.763983 1.2801L0.708399 1.36213C0.680631 1.40782 0.666626 1.48079 0.666626 1.58124C0.666626 1.68163 0.694394 1.80485 0.749977 1.95074C1.30533 3.23757 1.90926 4.47861 2.56178 5.67405C3.21429 6.86949 3.78131 7.83246 4.26251 8.56207C4.74379 9.29222 5.23437 9.98132 5.73424 10.629C6.2341 11.277 6.56498 11.6923 6.72687 11.8747C6.88895 12.0575 7.01626 12.1941 7.10881 12.2853L7.45597 12.6138C7.67811 12.8329 8.00432 13.0952 8.43474 13.4009C8.86526 13.7067 9.34188 14.0078 9.86485 14.3046C10.3879 14.6009 10.9964 14.8428 11.6907 15.0298C12.3849 15.217 13.0606 15.2922 13.7178 15.2559H15.3145C15.6383 15.2283 15.8837 15.128 16.0504 14.9547L16.1057 14.8861C16.1428 14.8316 16.1776 14.747 16.2097 14.6331C16.2422 14.5191 16.2583 14.3934 16.2583 14.2567C16.2488 13.8644 16.2791 13.5108 16.3484 13.196C16.4176 12.8813 16.4964 12.644 16.5847 12.4842C16.6728 12.3246 16.7723 12.1898 16.883 12.0806C16.994 11.9712 17.0731 11.9048 17.1195 11.882C17.1656 11.8591 17.2024 11.8435 17.2302 11.8341C17.4523 11.7612 17.7137 11.8318 18.0149 12.0465C18.3157 12.2609 18.5979 12.5257 18.8619 12.8404C19.1257 13.1554 19.4427 13.5088 19.8128 13.9012C20.1833 14.2936 20.5071 14.5854 20.7847 14.7773L21.0623 14.9415C21.2477 15.0511 21.4883 15.1515 21.7846 15.2428C22.0803 15.334 22.3394 15.3568 22.5619 15.3112L26.1161 15.2565C26.4676 15.2565 26.7412 15.1991 26.9352 15.0853C27.1296 14.9712 27.2451 14.8456 27.2824 14.7089C27.3195 14.572 27.3215 14.4168 27.2894 14.2432C27.2565 14.0701 27.2241 13.949 27.1918 13.8806Z"/>
</svg>
