<svg xmlns="http://www.w3.org/2000/svg"><defs>
<linearGradient id="paint0_linear" x1="9.53259" y1="29.5745" x2="15.3811" y2="28.483" gradientUnits="userSpaceOnUse">
<stop stop-color="#FF195E"/>
<stop offset="1" stop-color="#E82A5D"/>
</linearGradient>
<linearGradient id="paint1_linear" x1="29.8225" y1="29.5745" x2="35.671" y2="28.483" gradientUnits="userSpaceOnUse">
<stop stop-color="#FF195E"/>
<stop offset="1" stop-color="#E82A5D"/>
</linearGradient>

<linearGradient id="paint0_linear" x1="103.315" y1="-2.55879" x2="103.43" y2="2.13116" gradientUnits="userSpaceOnUse">
<stop stop-color="#EE396B"/>
<stop offset="1" stop-color="#F9CDE0"/>
</linearGradient>
<linearGradient id="paint1_linear" x1="103.439" y1="10.519" x2="83.2134" y2="-3.23121" gradientUnits="userSpaceOnUse">
<stop stop-color="#E85868"/>
<stop offset="0.1506" stop-color="#E62E5F"/>
<stop offset="1" stop-color="#87267B"/>
</linearGradient>
<linearGradient id="paint2_linear" x1="87.9908" y1="4.10608" x2="92.2694" y2="10.0798" gradientUnits="userSpaceOnUse">
<stop stop-color="#EE396B"/>
<stop offset="1" stop-color="#F9CDE0"/>
</linearGradient>
<linearGradient id="paint3_linear" x1="92.4716" y1="4.48971" x2="100.87" y2="4.48971" gradientUnits="userSpaceOnUse">
<stop stop-color="#EE396B"/>
<stop offset="1" stop-color="#F09EC4"/>
</linearGradient>
<linearGradient id="paint4_linear" x1="113.267" y1="-2.80313" x2="113.381" y2="1.88542" gradientUnits="userSpaceOnUse">
<stop stop-color="#EE396B"/>
<stop offset="1" stop-color="#F9CDE0"/>
</linearGradient>
<linearGradient id="paint5_linear" x1="91.8611" y1="6.33479" x2="97.4174" y2="19.8679" gradientUnits="userSpaceOnUse">
<stop stop-color="#EE396B"/>
<stop offset="1" stop-color="#F9CDE0"/>
</linearGradient>
<linearGradient id="paint6_linear" x1="102.382" y1="12.8009" x2="97.0838" y2="31.3966" gradientUnits="userSpaceOnUse">
<stop stop-color="#E62E5F"/>
<stop offset="1" stop-color="#87267B"/>
</linearGradient>
<linearGradient id="paint7_linear" x1="133.135" y1="4.75027" x2="114.104" y2="21.6096" gradientUnits="userSpaceOnUse">
<stop stop-color="#EE396B"/>
<stop offset="1" stop-color="#F9CDE0"/>
</linearGradient>
<linearGradient id="paint8_linear" x1="116.125" y1="9.68205" x2="111.238" y2="34.052" gradientUnits="userSpaceOnUse">
<stop stop-color="#E62E5F"/>
<stop offset="1" stop-color="#87267B"/>
</linearGradient>
<linearGradient id="paint9_linear" x1="115.405" y1="9.62129" x2="140.507" y2="-10.4562" gradientUnits="userSpaceOnUse">
<stop stop-color="#E85868"/>
<stop offset="0.1506" stop-color="#E62E5F"/>
<stop offset="1" stop-color="#87267B"/>
</linearGradient>
<linearGradient id="paint10_linear" x1="108.356" y1="-0.389216" x2="108.356" y2="5.13709" gradientUnits="userSpaceOnUse">
<stop stop-color="#EE396B"/>
<stop offset="0.265" stop-color="#F05A80"/>
<stop offset="1" stop-color="#F09EC4"/>
</linearGradient>
<linearGradient id="paint11_linear" x1="124.241" y1="6.07834" x2="130.392" y2="6.07834" gradientUnits="userSpaceOnUse">
<stop stop-color="#EE396B"/>
<stop offset="1" stop-color="#F9CDE0"/>
</linearGradient>
<linearGradient id="paint12_linear" x1="121.017" y1="-0.563714" x2="119.869" y2="6.98938" gradientUnits="userSpaceOnUse">
<stop stop-color="#EE396B"/>
<stop offset="1" stop-color="#F09EC4"/>
</linearGradient>

<linearGradient id="paint0_linear" x1="102.315" y1="-2.55879" x2="102.43" y2="2.13116" gradientUnits="userSpaceOnUse">
<stop stop-color="#EE396B"/>
<stop offset="1" stop-color="#F9CDE0"/>
</linearGradient>
<linearGradient id="paint1_linear" x1="102.439" y1="10.519" x2="82.2134" y2="-3.23121" gradientUnits="userSpaceOnUse">
<stop stop-color="#E85868"/>
<stop offset="0.1506" stop-color="#E62E5F"/>
<stop offset="1" stop-color="#87267B"/>
</linearGradient>
<linearGradient id="paint2_linear" x1="86.9908" y1="4.10608" x2="91.2694" y2="10.0798" gradientUnits="userSpaceOnUse">
<stop stop-color="#EE396B"/>
<stop offset="1" stop-color="#F9CDE0"/>
</linearGradient>
<linearGradient id="paint3_linear" x1="91.4716" y1="4.48971" x2="99.8699" y2="4.48971" gradientUnits="userSpaceOnUse">
<stop stop-color="#EE396B"/>
<stop offset="1" stop-color="#F09EC4"/>
</linearGradient>
<linearGradient id="paint4_linear" x1="112.267" y1="-2.80313" x2="112.381" y2="1.88542" gradientUnits="userSpaceOnUse">
<stop stop-color="#EE396B"/>
<stop offset="1" stop-color="#F9CDE0"/>
</linearGradient>
<linearGradient id="paint5_linear" x1="90.8611" y1="6.33479" x2="96.4174" y2="19.8679" gradientUnits="userSpaceOnUse">
<stop stop-color="#EE396B"/>
<stop offset="1" stop-color="#F9CDE0"/>
</linearGradient>
<linearGradient id="paint6_linear" x1="101.382" y1="12.8009" x2="96.0838" y2="31.3966" gradientUnits="userSpaceOnUse">
<stop stop-color="#E62E5F"/>
<stop offset="1" stop-color="#87267B"/>
</linearGradient>
<linearGradient id="paint7_linear" x1="132.135" y1="4.75027" x2="113.104" y2="21.6096" gradientUnits="userSpaceOnUse">
<stop stop-color="#EE396B"/>
<stop offset="1" stop-color="#F9CDE0"/>
</linearGradient>
<linearGradient id="paint8_linear" x1="115.125" y1="9.68205" x2="110.238" y2="34.052" gradientUnits="userSpaceOnUse">
<stop stop-color="#E62E5F"/>
<stop offset="1" stop-color="#87267B"/>
</linearGradient>
<linearGradient id="paint9_linear" x1="114.405" y1="9.62129" x2="139.507" y2="-10.4562" gradientUnits="userSpaceOnUse">
<stop stop-color="#E85868"/>
<stop offset="0.1506" stop-color="#E62E5F"/>
<stop offset="1" stop-color="#87267B"/>
</linearGradient>
<linearGradient id="paint10_linear" x1="107.356" y1="-0.389216" x2="107.356" y2="5.13709" gradientUnits="userSpaceOnUse">
<stop stop-color="#EE396B"/>
<stop offset="0.265" stop-color="#F05A80"/>
<stop offset="1" stop-color="#F09EC4"/>
</linearGradient>
<linearGradient id="paint11_linear" x1="123.241" y1="6.07834" x2="129.392" y2="6.07834" gradientUnits="userSpaceOnUse">
<stop stop-color="#EE396B"/>
<stop offset="1" stop-color="#F9CDE0"/>
</linearGradient>
<linearGradient id="paint12_linear" x1="120.017" y1="-0.563714" x2="118.869" y2="6.98938" gradientUnits="userSpaceOnUse">
<stop stop-color="#EE396B"/>
<stop offset="1" stop-color="#F09EC4"/>
</linearGradient>
</defs><symbol id="arrow-icon" viewBox="0 0 11 19">
<path d="M1.75301 17.5159L9.05133 9.41797L1.75301 1.32007" stroke="#D22D66" stroke-width="2" stroke-linecap="round" stroke-linejoin="round"/>
</symbol><symbol id="cart-icon" viewBox="0 0 40 34">
<path d="M1 1H8.54047V2.38903" stroke="black" stroke-width="2" stroke-miterlimit="10" stroke-linecap="round" stroke-linejoin="round"/>
<path d="M12.5587 32.6006C14.23 32.6006 15.5848 31.2457 15.5848 29.5744C15.5848 27.9032 14.23 26.5483 12.5587 26.5483C10.8874 26.5483 9.53259 27.9032 9.53259 29.5744C9.53259 31.2457 10.8874 32.6006 12.5587 32.6006Z" stroke="url(#paint0_linear)" stroke-width="2" stroke-miterlimit="10" stroke-linecap="round" stroke-linejoin="round"/>
<path d="M32.8486 32.6006C34.5199 32.6006 35.8747 31.2457 35.8747 29.5744C35.8747 27.9032 34.5199 26.5483 32.8486 26.5483C31.1773 26.5483 29.8225 27.9032 29.8225 29.5744C29.8225 31.2457 31.1773 32.6006 32.8486 32.6006Z" stroke="url(#paint1_linear)" stroke-width="2" stroke-miterlimit="10" stroke-linecap="round" stroke-linejoin="round"/>
<path d="M10.8407 19.1785L11.4856 21.5597L10.7232 25.1096H33.9399" stroke="black" stroke-width="2" stroke-miterlimit="10" stroke-linecap="round" stroke-linejoin="round"/>
<path d="M10.7232 19.0573L39 16.3785V2.38892H8.54047L10.7232 19.0573Z" stroke="black" stroke-width="2" stroke-miterlimit="10" stroke-linecap="round" stroke-linejoin="round"/>

</symbol><symbol id="cart2-icon" viewBox="0 0 24 22">
<path d="M1 1.62842H5.36553V2.46359" stroke="inherit" stroke-width="1.5" stroke-miterlimit="10" stroke-linecap="round" stroke-linejoin="round"/>
<path d="M7.6919 20.6285C8.65948 20.6285 9.44385 19.8139 9.44385 18.809C9.44385 17.8041 8.65948 16.9895 7.6919 16.9895C6.72432 16.9895 5.93994 17.8041 5.93994 18.809C5.93994 19.8139 6.72432 20.6285 7.6919 20.6285Z" stroke="inherit" stroke-width="1.5" stroke-miterlimit="10" stroke-linecap="round" stroke-linejoin="round"/>
<path d="M19.4387 20.6285C20.4063 20.6285 21.1907 19.8139 21.1907 18.809C21.1907 17.8041 20.4063 16.9895 19.4387 16.9895C18.4711 16.9895 17.6868 17.8041 17.6868 18.809C17.6868 19.8139 18.4711 20.6285 19.4387 20.6285Z" stroke="inherit" stroke-width="1.5" stroke-miterlimit="10" stroke-linecap="round" stroke-linejoin="round"/>
<path d="M6.69716 12.5588L7.07053 13.9905L6.62915 16.125H20.0704" stroke="inherit" stroke-width="1.5" stroke-miterlimit="10" stroke-linecap="round" stroke-linejoin="round"/>
<path d="M6.62918 12.4854L22.9999 10.8747V2.46338H5.36548L6.62918 12.4854Z" stroke="inherit" stroke-width="1.5" stroke-miterlimit="10" stroke-linecap="round" stroke-linejoin="round"/>
</symbol><symbol id="favorite-icon" viewBox="0 0 37 34">
<path d="M33.3012 4.57114C32.446 3.71553 31.4306 3.03681 30.313 2.57373C29.1954 2.11066 27.9975 1.87231 26.7878 1.87231C25.5781 1.87231 24.3802 2.11066 23.2626 2.57373C22.145 3.03681 21.1296 3.71553 20.2744 4.57114L18.4996 6.346L16.7247 4.57114C14.9972 2.84369 12.6543 1.87321 10.2113 1.87321C7.76832 1.87321 5.42539 2.84369 3.69793 4.57114C1.97048 6.2986 1 8.64153 1 11.0845C1 13.5275 1.97048 15.8705 3.69793 17.5979L5.47279 19.3728L18.4996 32.3995L31.5263 19.3728L33.3012 17.5979C34.1568 16.7427 34.8355 15.7273 35.2986 14.6097C35.7617 13.4921 36 12.2943 36 11.0845C36 9.8748 35.7617 8.67692 35.2986 7.55934C34.8355 6.44175 34.1568 5.42635 33.3012 4.57114V4.57114Z" stroke="#D1D1D1" stroke-width="2" stroke-linecap="round" stroke-linejoin="round"/>
</symbol><symbol id="insta-icon" viewBox="0 0 27 28">
<path d="M19.5886 0.667236H7.64008C3.58243 0.667236 0.28125 3.96857 0.28125 8.02623V19.9748C0.28125 24.0326 3.58243 27.3337 7.64008 27.3337H19.5886C23.6466 27.3337 26.9478 24.0324 26.9478 19.9748V8.02623C26.9479 3.96857 23.6466 0.667236 19.5886 0.667236ZM24.5819 19.9748C24.5819 22.728 22.342 24.9678 19.5888 24.9678H7.64008C4.88703 24.9679 2.64723 22.728 2.64723 19.9748V8.02623C2.64723 5.27317 4.88703 3.03322 7.64008 3.03322H19.5886C22.3418 3.03322 24.5818 5.27317 24.5818 8.02623V19.9748H24.5819Z"/>
<path d="M13.6145 7.12939C9.82563 7.12939 6.74323 10.2118 6.74323 14.0007C6.74323 17.7894 9.82563 20.8716 13.6145 20.8716C17.4034 20.8716 20.4858 17.7894 20.4858 14.0007C20.4858 10.2118 17.4034 7.12939 13.6145 7.12939ZM13.6145 18.5055C11.1304 18.5055 9.10921 16.4846 9.10921 14.0005C9.10921 11.5162 11.1302 9.49522 13.6145 9.49522C16.0988 9.49522 18.1198 11.5162 18.1198 14.0005C18.1198 16.4846 16.0986 18.5055 13.6145 18.5055Z"/>
<path d="M20.774 5.12329C20.3181 5.12329 19.8703 5.30784 19.5484 5.63119C19.2249 5.95296 19.0389 6.40092 19.0389 6.85834C19.0389 7.31435 19.2251 7.76215 19.5484 8.0855C19.8702 8.40727 20.3181 8.5934 20.774 8.5934C21.2314 8.5934 21.6778 8.40727 22.0011 8.0855C22.3245 7.76215 22.509 7.31419 22.509 6.85834C22.509 6.40092 22.3245 5.95296 22.0011 5.63119C21.6794 5.30784 21.2314 5.12329 20.774 5.12329Z"/>
</symbol><symbol id="login-icon" viewBox="0 0 11 11">
<path d="M7.75 10L9.1 10C9.33869 10 9.56761 9.89464 9.7364 9.70711C9.90518 9.51957 10 9.26522 10 9L10 2C10 1.73478 9.90518 1.48043 9.7364 1.29289C9.56761 1.10536 9.33869 1 9.1 1L7.75 1" stroke="white" stroke-width="1.5" stroke-linecap="round" stroke-linejoin="round"/>
<path d="M5.49999 7.5L7.29999 5.5L5.49999 3.5" stroke="white" stroke-width="1.5" stroke-linecap="round" stroke-linejoin="round"/>
<path d="M7.29999 5.5L0.999988 5.5" stroke="white" stroke-width="1.5" stroke-linecap="round" stroke-linejoin="round"/>
</symbol><symbol id="logo-icon" viewBox="0 0 211 94">
<path d="M4.92 89.21V88.49C6.06 88.47 6.93 88.17 7.52 87.59C8.11 87.01 8.41 86.31 8.41 85.48C8.41 84.65 8.11 83.94 7.52 83.36C6.93 82.78 6.06 82.48 4.92 82.46V81.82H4.18V82.46C3.04 82.48 2.17 82.78 1.58 83.37C0.99 83.96 0.7 84.66 0.7 85.49C0.7 86.32 0.99 87.03 1.58 87.6C2.17 88.17 3.04 88.47 4.18 88.49V89.21H4.92ZM4.18 87.82C3.26 87.81 2.58 87.58 2.13 87.13C1.68 86.68 1.46 86.13 1.46 85.48C1.46 84.83 1.68 84.27 2.13 83.82C2.58 83.37 3.26 83.14 4.18 83.13V87.82ZM4.92 83.13C5.85 83.14 6.53 83.37 6.98 83.82C7.43 84.27 7.65 84.83 7.65 85.48C7.65 86.65 6.92 87.79 4.92 87.82V83.13ZM14.9611 89V88.33H10.7511V85.58H14.0811V84.91H10.7511V82.67H14.8111V82H10.0111V89H14.9611ZM16.1776 90.56V89H22.0576V90.56H22.7476V88.33H21.6876V82H17.3676V82.84C17.3676 84.27 17.2676 85.39 17.0776 86.2C16.8876 87.01 16.5776 87.72 16.1476 88.33H15.4876V90.56H16.1776ZM16.9776 88.33C17.7276 87.25 18.0976 85.52 18.0976 83.14V82.67H20.9476V88.33H16.9776ZM28.9213 89V88.33H24.7113V85.58H28.0413V84.91H24.7113V82.67H28.7713V82H23.9713V89H28.9213ZM31.0077 89V85.91H33.2077C34.6077 85.91 35.4477 85.13 35.4477 83.94C35.4477 82.78 34.6077 82 33.2077 82H30.2677V89H31.0077ZM31.0077 82.67H33.1577C34.1477 82.67 34.7177 83.13 34.7177 83.96C34.7177 84.77 34.1477 85.24 33.1577 85.24H31.0077V82.67ZM36.1657 89L37.0157 87.07H40.6857L41.5557 89H42.3357L39.2057 81.96H38.5157L35.3957 89H36.1657ZM38.8557 82.89L40.4457 86.42H37.2657L38.8557 82.89ZM42.655 89C42.705 89.01 42.805 89.01 42.935 89.01C43.985 88.97 44.535 88.42 44.815 87.23C45.015 86.4 45.075 85.56 45.115 84.27L45.165 82.67H48.085V89H48.825V82H44.445L44.405 83.91C44.395 84.38 44.385 84.79 44.365 85.13C44.345 85.47 44.315 85.82 44.275 86.19C44.245 86.55 44.185 86.85 44.115 87.09C43.905 87.85 43.575 88.34 42.935 88.34C42.805 88.34 42.705 88.33 42.655 88.32V89ZM53.5204 89C55.0904 89 56.0304 88.13 56.0304 86.81C56.0304 86.16 55.8104 85.63 55.3604 85.22C54.9204 84.81 54.3104 84.61 53.5204 84.61H51.4304V82H50.6904V89H53.5204ZM51.4304 85.28H53.4704C54.6304 85.28 55.2904 85.84 55.2904 86.81C55.2904 87.78 54.6204 88.33 53.4704 88.33H51.4304V85.28ZM58.137 89V85.58H62.297V89H63.037V82H62.297V84.91H58.137V82H57.397V89H58.137ZM64.9845 89L65.8345 87.07H69.5045L70.3745 89H71.1545L68.0245 81.96H67.3345L64.2145 89H64.9845ZM67.6745 82.89L69.2645 86.42H66.0845L67.6745 82.89ZM72.5068 89L74.7168 85.85H76.8568V89H77.5968V82H74.4568C73.0868 82 72.2568 82.75 72.2568 83.9C72.2568 84.89 72.8568 85.61 73.9068 85.78L71.6468 89H72.5068ZM74.5068 85.18C73.5468 85.18 72.9868 84.73 72.9868 83.93C72.9868 83.13 73.5468 82.67 74.5068 82.67H76.8568V85.18H74.5068ZM87.4568 89.12C88.3968 89.12 89.1768 88.77 89.7968 88.08C90.4268 87.39 90.7368 86.53 90.7368 85.5C90.7368 84.47 90.4268 83.61 89.7968 82.92C89.1768 82.23 88.3968 81.88 87.4568 81.88C86.5868 81.88 85.8468 82.18 85.2368 82.79C84.6268 83.4 84.2768 84.16 84.1868 85.09H82.7468V82H82.0068V89H82.7468V85.76H84.1768C84.2368 86.73 84.5768 87.53 85.1868 88.17C85.7968 88.8 86.5568 89.12 87.4568 89.12ZM85.6468 87.62C85.1568 87.08 84.9168 86.37 84.9168 85.5C84.9168 84.63 85.1568 83.92 85.6468 83.38C86.1368 82.84 86.7368 82.57 87.4568 82.57C88.1768 82.57 88.7768 82.84 89.2568 83.38C89.7468 83.92 89.9868 84.63 89.9868 85.5C89.9868 86.37 89.7468 87.08 89.2568 87.62C88.7768 88.16 88.1768 88.43 87.4568 88.43C86.7368 88.43 86.1368 88.16 85.6468 87.62ZM95.6765 89C97.1065 89 97.9765 88.22 97.9765 87.05C97.9765 86.02 97.3765 85.33 96.4565 85.18C97.0265 84.97 97.3765 84.43 97.3765 83.7C97.3765 82.65 96.6065 82 95.3665 82H92.3365V89H95.6765ZM93.0765 85.61H95.5465C96.5865 85.61 97.1865 86.11 97.1865 86.96C97.1865 87.83 96.5865 88.33 95.5465 88.33H93.0765V85.61ZM93.0765 82.67H95.2465C96.1365 82.67 96.6465 83.08 96.6465 83.83C96.6465 84.56 96.1365 84.96 95.2465 84.96H93.0765V82.67ZM104.442 89V88.33H100.232V85.58H103.562V84.91H100.232V82.67H104.292V82H99.4923V89H104.442ZM104.929 89C104.979 89.01 105.079 89.01 105.209 89.01C106.259 88.97 106.809 88.42 107.089 87.23C107.289 86.4 107.349 85.56 107.389 84.27L107.439 82.67H110.359V89H111.099V82H106.719L106.679 83.91C106.669 84.38 106.659 84.79 106.639 85.13C106.619 85.47 106.589 85.82 106.549 86.19C106.519 86.55 106.459 86.85 106.389 87.09C106.179 87.85 105.849 88.34 105.209 88.34C105.079 88.34 104.979 88.33 104.929 88.32V89ZM113.584 89L117.964 83.22V89H118.694V82H118.044L113.694 87.76V82H112.964V89H113.584ZM121.3 89V85.91H123.5C124.9 85.91 125.74 85.13 125.74 83.94C125.74 82.78 124.9 82 123.5 82H120.56V89H121.3ZM121.3 82.67H123.45C124.44 82.67 125.01 83.13 125.01 83.96C125.01 84.77 124.44 85.24 123.45 85.24H121.3V82.67ZM127.85 89V85.58H132.01V89H132.75V82H132.01V84.91H127.85V82H127.11V89H127.85ZM134.697 89L135.547 87.07H139.217L140.087 89H140.867L137.737 81.96H137.047L133.927 89H134.697ZM137.387 82.89L138.977 86.42H135.797L137.387 82.89ZM142.22 89L144.43 85.85H146.57V89H147.31V82H144.17C142.8 82 141.97 82.75 141.97 83.9C141.97 84.89 142.57 85.61 143.62 85.78L141.36 89H142.22ZM144.22 85.18C143.26 85.18 142.7 84.73 142.7 83.93C142.7 83.13 143.26 82.67 144.22 82.67H146.57V85.18H144.22ZM151.72 82V89H152.46V85.44L156.17 89H157.21L153.24 85.2L156.68 82H155.7L152.46 85.04V82H151.72ZM158.404 82.92C157.734 83.61 157.404 84.47 157.404 85.5C157.404 86.53 157.734 87.4 158.404 88.09C159.074 88.78 159.914 89.12 160.924 89.12C161.934 89.12 162.764 88.78 163.434 88.09C164.104 87.4 164.444 86.53 164.444 85.5C164.444 84.47 164.104 83.61 163.434 82.92C162.764 82.23 161.934 81.88 160.924 81.88C159.914 81.88 159.074 82.23 158.404 82.92ZM158.954 87.59C158.424 87.03 158.154 86.33 158.154 85.5C158.154 84.67 158.424 83.97 158.954 83.41C159.484 82.85 160.144 82.57 160.924 82.57C161.704 82.57 162.364 82.85 162.894 83.41C163.424 83.97 163.694 84.67 163.694 85.5C163.694 86.33 163.424 87.03 162.894 87.59C162.364 88.15 161.704 88.43 160.924 88.43C160.144 88.43 159.484 88.15 158.954 87.59ZM166.771 89V83.12L169.081 86.18H169.531L171.821 83.12V89H172.551V82H171.831L169.301 85.39L166.771 82H166.041V89H166.771ZM175.158 89V82.67H179.168V89H179.908V82H174.418V89H175.158ZM181.859 89L182.709 87.07H186.379L187.249 89H188.029L184.899 81.96H184.209L181.089 89H181.859ZM184.549 82.89L186.139 86.42H182.959L184.549 82.89ZM189.948 89V85.58H194.108V89H194.848V82H194.108V84.91H189.948V82H189.208V89H189.948ZM197.335 89L201.715 83.22V89H202.445V82H201.795L197.445 87.76V82H196.715V89H197.335ZM204.611 89L206.821 85.85H208.961V89H209.701V82H206.561C205.191 82 204.361 82.75 204.361 83.9C204.361 84.89 204.961 85.61 206.011 85.78L203.751 89H204.611ZM206.611 85.18C205.651 85.18 205.091 84.73 205.091 83.93C205.091 83.13 205.651 82.67 206.611 82.67H208.961V85.18H206.611Z" fill="black"/>
<path d="M23.68 41.2729V72.5085H21.58L3.31 45.6249V72.5085H1V41.2729H3.03L21.3 68.1566V41.2729H23.68Z" fill="#414142"/>
<path d="M34.32 56.9258C34.32 48.0114 41.32 40.8518 50.28 40.8518C59.17 40.8518 66.24 48.0114 66.24 56.9258C66.24 65.8403 59.24 72.9999 50.28 72.9999C41.39 72.9999 34.32 65.8403 34.32 56.9258ZM63.86 56.9258C63.86 49.2749 57.91 43.098 50.28 43.098C42.65 43.098 36.7 49.2047 36.7 56.9258C36.7 64.5768 42.65 70.7537 50.28 70.7537C57.91 70.7537 63.86 64.5768 63.86 56.9258Z" fill="#414142"/>
<path d="M72.33 41.2729H74.92L85.14 69.4201L95.36 41.2729H97.88L86.33 72.5085H83.88L72.33 41.2729Z" fill="#414142"/>
<path d="M109.43 41.2729V72.5085H107.12V41.2729H109.43Z" fill="#414142"/>
<path d="M139.74 72.5085L124.2 57.1364V72.5085H121.89V41.2729H124.2V55.8028L139.25 41.2729H142.4L126.79 56.4345L142.89 72.5085H139.74Z" fill="#414142"/>
<path d="M147.51 56.9258C147.51 48.0114 154.51 40.8518 163.47 40.8518C172.36 40.8518 179.43 48.0114 179.43 56.9258C179.43 65.8403 172.43 72.9999 163.47 72.9999C154.51 72.9999 147.51 65.8403 147.51 56.9258ZM177.05 56.9258C177.05 49.2749 171.1 43.098 163.47 43.098C155.84 43.098 149.89 49.2749 149.89 56.9258C149.89 64.5768 155.84 70.7537 163.47 70.7537C171.1 70.7537 177.05 64.5768 177.05 56.9258Z" fill="#414142"/>
<path d="M185.45 41.2729H188.04L198.26 69.4201L208.48 41.2729H211L199.45 72.5085H197L185.45 41.2729Z" fill="#414142"/>
<path d="M108.38 0L100.89 2.80769L98.37 0H108.38Z" fill="url(#paint0_linear)"/>
<path d="M100.89 2.80786L92.49 8.98478H108.38L100.89 2.80786Z" fill="url(#paint1_linear)"/>
<path d="M92.49 3.15869L86.33 8.98465H92.49V3.15869Z" fill="url(#paint2_linear)"/>
<path d="M98.37 0H95.78L92.49 3.15865V8.98461L100.89 2.80769L98.37 0Z" fill="url(#paint3_linear)"/>
<path d="M108.38 0L115.8 2.80769L118.32 0H108.38Z" fill="url(#paint4_linear)"/>
<path d="M92.49 8.98462H86.33L108.38 30.5337L92.49 8.98462Z" fill="url(#paint5_linear)"/>
<path d="M92.49 8.98462L108.38 30.5337V8.98462H92.49Z" fill="url(#paint6_linear)"/>
<path d="M124.27 8.98462L108.38 30.5337L130.36 8.98462H124.27Z" fill="url(#paint7_linear)"/>
<path d="M108.38 8.98462H108.31V30.4635L108.38 30.5337L124.27 8.98462H108.38Z" fill="url(#paint8_linear)"/>
<path d="M115.87 2.80786L124.27 8.98478H108.38L115.87 2.80786Z" fill="url(#paint9_linear)"/>
<path d="M108.38 0L100.89 2.80769L108.38 8.98461L115.87 2.80769L108.38 0Z" fill="url(#paint10_linear)"/>
<path d="M124.27 3.15869V8.98465H130.36L124.27 3.15869Z" fill="url(#paint11_linear)"/>
<path d="M120.91 0H118.32L115.87 2.80769L124.27 8.98461V3.15865L120.91 0Z" fill="url(#paint12_linear)"/>

</symbol><symbol id="logo-mobile-icon" viewBox="0 0 210 73">
<path d="M22.68 41.2729V72.5085H20.58L2.31 45.6249V72.5085H0V41.2729H2.03L20.3 68.1566V41.2729H22.68Z" fill="#414142"/>
<path d="M33.32 56.9258C33.32 48.0114 40.32 40.8518 49.28 40.8518C58.17 40.8518 65.24 48.0114 65.24 56.9258C65.24 65.8403 58.24 72.9999 49.28 72.9999C40.39 72.9999 33.32 65.8403 33.32 56.9258ZM62.86 56.9258C62.86 49.2749 56.91 43.098 49.28 43.098C41.65 43.098 35.7 49.2047 35.7 56.9258C35.7 64.5768 41.65 70.7537 49.28 70.7537C56.91 70.7537 62.86 64.5768 62.86 56.9258Z" fill="#414142"/>
<path d="M71.33 41.2729H73.92L84.14 69.4201L94.36 41.2729H96.88L85.33 72.5085H82.88L71.33 41.2729Z" fill="#414142"/>
<path d="M108.43 41.2729V72.5085H106.12V41.2729H108.43Z" fill="#414142"/>
<path d="M138.74 72.5085L123.2 57.1364V72.5085H120.89V41.2729H123.2V55.8028L138.25 41.2729H141.4L125.79 56.4345L141.89 72.5085H138.74Z" fill="#414142"/>
<path d="M146.51 56.9258C146.51 48.0114 153.51 40.8518 162.47 40.8518C171.36 40.8518 178.43 48.0114 178.43 56.9258C178.43 65.8403 171.43 72.9999 162.47 72.9999C153.51 72.9999 146.51 65.8403 146.51 56.9258ZM176.05 56.9258C176.05 49.2749 170.1 43.098 162.47 43.098C154.84 43.098 148.89 49.2749 148.89 56.9258C148.89 64.5768 154.84 70.7537 162.47 70.7537C170.1 70.7537 176.05 64.5768 176.05 56.9258Z" fill="#414142"/>
<path d="M184.45 41.2729H187.04L197.26 69.4201L207.48 41.2729H210L198.45 72.5085H196L184.45 41.2729Z" fill="#414142"/>
<path d="M107.38 0L99.89 2.80769L97.37 0H107.38Z" fill="url(#paint0_linear)"/>
<path d="M99.89 2.80786L91.49 8.98478H107.38L99.89 2.80786Z" fill="url(#paint1_linear)"/>
<path d="M91.49 3.15869L85.33 8.98465H91.49V3.15869Z" fill="url(#paint2_linear)"/>
<path d="M97.37 0H94.78L91.49 3.15865V8.98461L99.89 2.80769L97.37 0Z" fill="url(#paint3_linear)"/>
<path d="M107.38 0L114.8 2.80769L117.32 0H107.38Z" fill="url(#paint4_linear)"/>
<path d="M91.49 8.98462H85.33L107.38 30.5337L91.49 8.98462Z" fill="url(#paint5_linear)"/>
<path d="M91.49 8.98462L107.38 30.5337V8.98462H91.49Z" fill="url(#paint6_linear)"/>
<path d="M123.27 8.98462L107.38 30.5337L129.36 8.98462H123.27Z" fill="url(#paint7_linear)"/>
<path d="M107.38 8.98462H107.31V30.4635L107.38 30.5337L123.27 8.98462H107.38Z" fill="url(#paint8_linear)"/>
<path d="M114.87 2.80786L123.27 8.98478H107.38L114.87 2.80786Z" fill="url(#paint9_linear)"/>
<path d="M107.38 0L99.89 2.80769L107.38 8.98461L114.87 2.80769L107.38 0Z" fill="url(#paint10_linear)"/>
<path d="M123.27 3.15869V8.98465H129.36L123.27 3.15869Z" fill="url(#paint11_linear)"/>
<path d="M119.91 0H117.32L114.87 2.80769L123.27 8.98461V3.15865L119.91 0Z" fill="url(#paint12_linear)"/>

</symbol><symbol id="menu-close-icon"><path fill="#EF265E" d="M20.513 1.414L19.099 0l-8.843 8.842L1.414 0 0 1.414l8.842 8.842L0 19.098l1.414 1.414 8.842-8.842 8.843 8.842 1.414-1.414-8.842-8.842z"/></symbol><symbol id="menu-open-icon"><path fill="#EF265E" d="M0 0h19.958v2H0zm0 6h19.958v2H0zm0 6h19.958v2H0z"/></symbol><symbol id="od-icon" viewBox="0 0 17 28">
<path d="M6.89239 19.4505C4.82511 19.2349 2.96114 18.7258 1.36529 17.4777C1.16728 17.3224 0.96284 17.1727 0.782141 16.9992C0.0836425 16.3284 0.013262 15.5601 0.565972 14.7683C1.03881 14.0907 1.83254 13.9095 2.65756 14.2985C2.81731 14.3739 2.96952 14.4681 3.11531 14.5692C6.08944 16.6127 10.1751 16.6691 13.1604 14.661C13.4562 14.4343 13.7724 14.2494 14.1388 14.155C14.8512 13.972 15.5157 14.2337 15.898 14.8571C16.3348 15.569 16.3292 16.2639 15.7911 16.8166C14.9655 17.6639 13.9726 18.277 12.8694 18.7048C11.8263 19.1093 10.6837 19.3129 9.55289 19.448C9.72353 19.6338 9.80397 19.7251 9.91065 19.8323C11.4462 21.3751 12.9884 22.9115 14.5189 24.459C15.0403 24.9863 15.1493 25.6401 14.8621 26.2534C14.5482 26.9237 13.8455 27.3647 13.1565 27.3175C12.72 27.2874 12.3796 27.0701 12.0771 26.7654C10.9183 25.5993 9.73777 24.4548 8.60247 23.2667C8.27207 22.9213 8.11316 22.9866 7.82158 23.2866C6.65584 24.4867 5.4711 25.6683 4.27938 26.8433C3.74426 27.3709 3.10749 27.4658 2.48691 27.1645C1.82723 26.8447 1.40747 26.1713 1.43986 25.4946C1.46221 25.0369 1.68731 24.6872 2.00151 24.3735C3.52111 22.8562 5.03653 21.3349 6.5525 19.815C6.65276 19.7139 6.74633 19.6067 6.89239 19.4505Z"/>
<path d="M8.1517 14.165C4.46371 14.1524 1.43958 11.095 1.46108 7.40117C1.48231 3.66653 4.50839 0.656929 8.23269 0.667263C11.9645 0.677317 14.9599 3.73021 14.9412 7.50367C14.9222 11.19 11.8771 14.1778 8.1517 14.165ZM11.5034 7.4101C11.497 5.57602 10.0363 4.11591 8.20588 4.11423C6.36007 4.11228 4.88627 5.59892 4.90051 7.44976C4.9142 9.27686 6.38744 10.7266 8.22292 10.7199C10.0528 10.7135 11.5096 9.24391 11.5034 7.4101Z"/>
</symbol><symbol id="payment-icon" viewBox="0 0 271 24">
<path d="M256.014 13.4841H258.273V4.22502C259.074 4.07492 259.903 3.96235 260.761 3.8873C261.619 3.79349 262.525 3.74658 263.478 3.74658C264.47 3.74658 265.423 3.83101 266.338 3.99987C267.254 4.16873 268.054 4.4783 268.741 4.92859C269.427 5.37888 269.971 5.99803 270.371 6.78603C270.79 7.57404 271 8.58719 271 9.82549C271 10.97 270.79 11.9456 270.371 12.7524C269.971 13.5404 269.427 14.1877 268.741 14.6942C268.073 15.2008 267.311 15.5667 266.453 15.7918C265.595 16.017 264.718 16.1295 263.822 16.1295C263.555 16.1295 263.212 16.1295 262.792 16.1295C262.392 16.1108 262.087 16.0826 261.877 16.0451V17.6774H266.453V20.2384H261.877V23.7282H258.273V20.2384H256.014V17.6774H258.273V16.0451H256.014V13.4841ZM263.793 6.84232C263.412 6.84232 263.049 6.86108 262.706 6.89861C262.363 6.91737 262.087 6.94551 261.877 6.98304V13.3434C262.029 13.3809 262.277 13.4184 262.62 13.4559C262.964 13.4747 263.212 13.4841 263.364 13.4841C263.879 13.4841 264.365 13.4184 264.823 13.2871C265.299 13.1558 265.709 12.9494 266.052 12.6679C266.396 12.3865 266.663 12.03 266.853 11.5985C267.063 11.1482 267.168 10.6135 267.168 9.99434C267.168 8.84986 266.853 8.04309 266.224 7.57404C265.595 7.08623 264.784 6.84232 263.793 6.84232Z" fill="#4EC385"/>
<path d="M207.309 11.1507C207.309 9.88835 207.417 9.08737 210.091 7.13606C212.304 5.52059 219.398 0 219.398 0V9.21564H224.793V22.4793H208.994C208.067 22.4793 207.309 21.7375 207.309 20.8312L207.309 11.1507Z" fill="#FFCF01"/>
<path d="M219.398 9.21582V14.5556L209.484 21.1595L222.018 17.1718V9.21582H219.398Z" fill="#D3AB07"/>
<path d="M214.868 8.9388C215.448 8.26342 216.294 8.0249 216.759 8.4064C217.224 8.7879 217.131 9.64482 216.551 10.3203C215.972 10.9957 215.125 11.2339 214.66 10.8524C214.195 10.4709 214.288 9.6141 214.868 8.9388Z" fill="black"/>
<path d="M164.794 1.24878C166.548 1.24878 168.217 1.65676 169.714 2.38665C169.949 2.49418 170.185 2.62295 170.419 2.75183L169.392 3.67532L167.853 2.06486L165.201 4.42645L163.64 2.73014L158.763 7.13187L161.885 10.5887L160.666 11.662L163.747 15.1189L162.528 16.1917L166.934 21.1087L169.542 18.7039L171.81 21.2811C171.361 21.6247 170.869 21.9689 170.335 22.269C168.709 23.1921 166.826 23.7278 164.816 23.7278C158.634 23.7278 153.608 18.6832 153.608 12.4785C153.586 6.31613 158.613 1.24878 164.794 1.24878ZM162.741 11.7911L165.414 9.38627L167.811 12.0701L165.136 14.4747L162.741 11.7911ZM164.645 16.429L167.297 14.0028L169.714 16.6864L167.04 19.0914L164.645 16.429ZM160.838 7.21805L163.511 4.8132L165.907 7.49704L163.233 9.90178L160.838 7.21805ZM165.735 5.92938L167.725 4.12588L169.522 6.12276L167.532 7.94749L165.735 5.92938ZM169.286 14.1957L171.275 12.3921L173.072 14.4099L171.082 16.2147L169.286 14.1957ZM171.04 18.2542L173.029 16.4503L174.825 18.447L172.836 20.2715L171.04 18.2542ZM171.853 8.97828L173.179 7.7758L174.376 9.10751L173.051 10.3095L171.853 8.97828ZM170.142 5.00611L171.468 3.78251L172.666 5.13499L171.339 6.33736L170.142 5.00611ZM173.542 12.9508L174.868 11.7484L176.088 13.0797L174.741 14.2817L173.542 12.9508ZM167.575 9.96616L169.564 8.16255L171.361 10.159L169.372 11.9629L167.575 9.96616Z" fill="#036CB5"/>
<path d="M110.984 4.69067H101.324V20.8114H110.984V4.69067Z" fill="#FF5F00"/>
<path d="M102.319 12.7524C102.317 11.2001 102.662 9.66791 103.326 8.2717C103.99 6.8755 104.956 5.65189 106.151 4.69349C104.671 3.50493 102.893 2.76584 101.021 2.56068C99.1492 2.35552 97.2585 2.69258 95.5651 3.53332C93.8718 4.37407 92.4441 5.68459 91.4453 7.31509C90.4465 8.9456 89.9168 10.8303 89.9168 12.7538C89.9168 14.6773 90.4465 16.5621 91.4453 18.1926C92.4441 19.8231 93.8718 21.1336 95.5651 21.9743C97.2585 22.8151 99.1492 23.1521 101.021 22.947C102.893 22.7418 104.671 22.0027 106.151 20.8142C104.956 19.8555 103.989 18.6314 103.325 17.2347C102.661 15.8379 102.317 14.3052 102.319 12.7524Z" fill="#EB001B"/>
<path d="M122.387 12.752C122.387 14.6757 121.857 16.5605 120.858 18.1911C119.859 19.8217 118.431 21.1322 116.738 21.9728C115.044 22.8134 113.153 23.1502 111.281 22.9448C109.409 22.7393 107.631 21.9999 106.151 20.811C107.346 19.8517 108.312 18.6278 108.976 17.2315C109.64 15.8352 109.985 14.303 109.985 12.7506C109.985 11.1982 109.64 9.66604 108.976 8.26976C108.312 6.87348 107.346 5.64954 106.151 4.69028C107.631 3.50135 109.409 2.7619 111.281 2.55645C113.153 2.35099 115.044 2.68783 116.738 3.52846C118.431 4.36908 119.859 5.67958 120.858 7.31014C121.857 8.9407 122.387 10.8255 122.387 12.7492V12.752Z" fill="#F79E1B"/>
<path d="M20.6779 20.9792L23.6493 4.04102H28.4011L25.428 20.9792H20.6779Z" fill="#0058A0"/>
<path d="M42.6636 4.45781C41.7221 4.11485 40.247 3.74658 38.4044 3.74658C33.7087 3.74658 30.401 6.04381 30.3729 9.33649C30.3465 11.7703 32.7341 13.1279 34.5369 13.9384C36.3865 14.7687 37.0084 15.2979 36.9997 16.0397C36.988 17.175 35.5225 17.6938 34.1565 17.6938C32.2545 17.6938 31.2439 17.4371 29.6832 16.8047L29.0711 16.5354L28.4041 20.3268C29.5143 20.7996 31.5666 21.2094 33.6977 21.2305C38.693 21.2305 41.9359 18.9595 41.9726 15.4436C41.9907 13.5166 40.7246 12.0503 37.9829 10.8414C36.3217 10.0578 35.3044 9.53507 35.3154 8.74142C35.3154 8.03733 36.1764 7.28457 38.0367 7.28457C39.5907 7.26121 40.7162 7.59021 41.5932 7.9335L42.0191 8.12915L42.6636 4.45781Z" fill="#0058A0"/>
<path d="M54.8495 4.05713H51.1774C50.0398 4.05713 49.1885 4.35888 48.6889 5.46175L41.6313 20.9846H46.6212C46.6212 20.9846 47.4372 18.8973 47.6218 18.4391C48.1672 18.4391 53.0146 18.4463 53.7079 18.4463C53.8502 19.0391 54.286 20.9842 54.286 20.9842H58.6955L54.8495 4.05713ZM48.9898 14.9745C49.3829 13.9985 50.8831 10.2395 50.8831 10.2395C50.8551 10.2846 51.2732 9.25898 51.5134 8.62302L51.8346 10.0834C51.8346 10.0834 52.7447 14.1266 52.9348 14.9745H48.9898Z" fill="#0058A0"/>
<path d="M16.6922 4.05322L12.0396 15.6039L11.544 13.2567C10.6779 10.5507 7.97941 7.61911 4.96259 6.15122L9.21679 20.9644L14.2448 20.9589L21.7259 4.05322H16.6922Z" fill="#0058A0"/>
<path d="M7.72357 4.04346H0.0607839L0 4.39583C5.96184 5.79785 9.90645 9.18625 11.5439 13.2573L9.87772 5.47338C9.58984 4.40102 8.75556 4.08077 7.72357 4.04346Z" fill="#FAA61A"/>
</symbol><symbol id="phone-icon" viewBox="0 0 31 31">
<path d="M29.5638 22.821V27.1214C29.5654 27.5206 29.4835 27.9158 29.3232 28.2816C29.163 28.6474 28.928 28.9757 28.6332 29.2456C28.3385 29.5155 27.9905 29.721 27.6116 29.8489C27.2327 29.9768 26.8312 30.0243 26.4328 29.9884C22.0133 29.5091 17.7681 28.0018 14.0382 25.5876C10.568 23.3867 7.62595 20.4503 5.42086 16.9867C2.99361 13.2471 1.48309 8.98934 1.01166 4.55847C0.975767 4.16207 1.02297 3.76255 1.15025 3.38535C1.27754 3.00815 1.48212 2.66153 1.75098 2.36757C2.01983 2.07361 2.34706 1.83875 2.71185 1.67793C3.07663 1.51711 3.47096 1.43386 3.86974 1.43349H8.17841C8.87542 1.42664 9.55114 1.67299 10.0796 2.12662C10.6081 2.58025 10.9533 3.21021 11.0509 3.89907C11.2327 5.27531 11.57 6.62659 12.0562 7.92715C12.2494 8.44022 12.2913 8.99783 12.1767 9.5339C12.0622 10.07 11.7961 10.562 11.4099 10.9518L9.58591 12.7723C11.6305 16.3611 14.6076 19.3325 18.2033 21.3732L20.0273 19.5527C20.4177 19.1672 20.9108 18.9016 21.4478 18.7873C21.9849 18.673 22.5436 18.7147 23.0577 18.9076C24.3607 19.3929 25.7146 19.7295 27.0935 19.911C27.7911 20.0093 28.4283 20.36 28.8838 20.8965C29.3392 21.4331 29.5813 22.118 29.5638 22.821Z" stroke="#E5285B" stroke-width="2" stroke-linecap="round" stroke-linejoin="round"/>
<path d="M19 4V11H26" stroke="black" stroke-width="2" stroke-linejoin="round"/>
<path d="M29 1L19 11" stroke="black" stroke-width="2" stroke-linejoin="round"/>
</symbol><symbol id="pin-icon" viewBox="0 0 10 12">
<path d="M9.18182 5.09091C9.18182 8.27273 5.09091 11 5.09091 11C5.09091 11 1 8.27273 1 5.09091C1 4.00593 1.43101 2.96539 2.1982 2.1982C2.96539 1.43101 4.00593 1 5.09091 1C6.17589 1 7.21642 1.43101 7.98362 2.1982C8.75081 2.96539 9.18182 4.00593 9.18182 5.09091Z" stroke="white" stroke-width="1.5" stroke-linecap="round" stroke-linejoin="round"/>
<path d="M5.09093 6.45457C5.84405 6.45457 6.45457 5.84405 6.45457 5.09093C6.45457 4.33782 5.84405 3.72729 5.09093 3.72729C4.33782 3.72729 3.72729 4.33782 3.72729 5.09093C3.72729 5.84405 4.33782 6.45457 5.09093 6.45457Z" fill="white"/>
</symbol><symbol id="search-icon" viewBox="0 0 20 20">
<path d="M8.5 16C12.6421 16 16 12.6421 16 8.5C16 4.35786 12.6421 1 8.5 1C4.35786 1 1 4.35786 1 8.5C1 12.6421 4.35786 16 8.5 16Z" stroke="#D1D1D1" stroke-width="1.5" stroke-linejoin="round"/>
<path d="M19 18.9998L13.8 13.7998" stroke="#D1D1D1" stroke-width="1.5" stroke-linejoin="round"/>
</symbol><symbol id="send-icon" viewBox="0 0 49 22">
<path d="M47.5608 0H16.237C15.7031 0 15.2703 0.432767 15.2703 0.966664V2.78976H6.05675C5.52285 2.78976 5.09009 3.22253 5.09009 3.75642C5.09009 4.29032 5.52285 4.72309 6.05675 4.72309H15.2703V17.2769H9.76351C9.22961 17.2769 8.79685 17.7097 8.79685 18.2436C8.79685 18.7775 9.22961 19.2102 9.76351 19.2102H15.2703V21.0333C15.2703 21.5672 15.7031 22 16.237 22H47.5608C48.0947 22 48.5275 21.5672 48.5275 21.0333V0.966664C48.5275 0.432767 48.0947 0 47.5608 0ZM45.1761 1.93333L31.9003 12.8316L18.685 1.93333H45.1761ZM46.5941 20.0668H17.2038V3.21769L31.2839 14.8292C31.4625 14.9764 31.6807 15.0501 31.8989 15.0501C32.1165 15.0501 32.3341 14.977 32.5123 14.8306L46.5941 3.27067V20.0668Z"/>
<path d="M11.3426 9.93555H0.966663C0.432766 9.93555 0 10.3683 0 10.9022C0 11.4361 0.432766 11.8689 0.966663 11.8689H11.3426C11.8765 11.8689 12.3093 11.4361 12.3093 10.9022C12.3094 10.3683 11.8765 9.93555 11.3426 9.93555Z"/>
<path d="M6.57346 17.2769H6.05681C5.52292 17.2769 5.09015 17.7096 5.09015 18.2435C5.09015 18.7774 5.52292 19.2102 6.05681 19.2102H6.57346C7.10736 19.2102 7.54012 18.7774 7.54012 18.2435C7.54012 17.7096 7.10736 17.2769 6.57346 17.2769Z"/>
</symbol><symbol id="tw-icon" viewBox="0 0 28 22">
<path d="M27.5207 2.56351C26.5106 2.99852 25.4267 3.29355 24.288 3.42526C25.4507 2.74852 26.3408 1.67513 26.7626 0.400018C25.672 1.02672 24.468 1.48178 23.1852 1.72847C22.158 0.663399 20.6968 0 19.0762 0C15.967 0 13.446 2.45019 13.446 5.47042C13.446 5.89877 13.4957 6.31713 13.5918 6.71719C8.9134 6.48881 4.76494 4.31033 1.98844 1.00005C1.50309 1.80679 1.22699 2.74682 1.22699 3.75027C1.22699 5.64876 2.22167 7.32389 3.73084 8.30393C2.80818 8.27394 1.94041 8.02726 1.18071 7.61721V7.68555C1.18071 10.3358 3.12204 12.5476 5.69617 13.051C5.22455 13.1743 4.72723 13.2427 4.21274 13.2427C3.84919 13.2427 3.49761 13.2077 3.1529 13.141C3.86973 15.3161 5.94828 16.8979 8.41097 16.9413C6.48506 18.4081 4.05668 19.2798 1.4191 19.2798C0.964651 19.2798 0.517019 19.2531 0.0762939 19.2048C2.56813 20.7599 5.52644 21.6667 8.70595 21.6667C19.0626 21.6667 24.7236 13.3294 24.7236 6.09882L24.7048 5.39044C25.8109 4.62366 26.7678 3.66027 27.5207 2.56351Z"/>
</symbol><symbol id="user-icon" viewBox="0 0 11 13">
<path d="M9.02433 8.86311L7.15518 7.98751C6.97876 7.90486 6.86942 7.7386 6.86942 7.5538V6.93403C6.91436 6.8828 6.96132 6.82434 7.00995 6.7596C7.25244 6.43871 7.44663 6.08169 7.58784 5.69637C7.8642 5.57789 8.0433 5.32206 8.0433 5.03323V4.3C8.0433 4.12337 7.97287 3.9524 7.84777 3.81883V2.8436C7.85884 2.74271 7.90177 2.14243 7.43859 1.64743C7.03645 1.2178 6.38444 1 5.5 1C4.61556 1 3.96322 1.2178 3.56141 1.64711C3.09823 2.14243 3.14116 2.74271 3.15223 2.8436V3.81883C3.02713 3.9524 2.9567 4.12369 2.9567 4.3V5.03323C2.9567 5.25637 3.06503 5.46443 3.2495 5.60334C3.4286 6.26837 3.80391 6.76934 3.93471 6.93026V7.53683C3.93471 7.7144 3.83141 7.8772 3.66539 7.96206L1.91999 8.85431C1.3525 9.1444 1 9.70069 1 10.3063V10.9C1 11.7699 3.94343 12 5.5 12C7.05657 12 10 11.7699 10 10.9V10.3421C9.99966 9.71169 9.62603 9.14503 9.02433 8.86311Z" stroke="white" stroke-width="1.5" stroke-miterlimit="10"/>
</symbol><symbol id="vk-icon" viewBox="0 0 28 16">
<path d="M27.1918 13.8806C27.1595 13.812 27.1294 13.7551 27.1014 13.7095C26.6388 12.888 25.7546 11.8796 24.4495 10.6841L24.422 10.6568L24.4082 10.6433L24.3942 10.6296H24.3802C23.7879 10.0729 23.4128 9.69859 23.2557 9.50696C22.9683 9.14191 22.9039 8.7724 23.061 8.39801C23.172 8.11514 23.5889 7.51775 24.3106 6.60503C24.6903 6.12132 24.9909 5.73365 25.213 5.44157C26.8144 3.34257 27.5087 2.00128 27.2957 1.41717L27.213 1.28067C27.1574 1.1985 27.0139 1.12332 26.7828 1.05476C26.5511 0.986344 26.255 0.97503 25.8939 1.02063L21.8954 1.04786C21.8306 1.02523 21.7381 1.02734 21.6176 1.05476C21.4973 1.08219 21.4371 1.09595 21.4371 1.09595L21.3675 1.13023L21.3122 1.17141C21.266 1.19864 21.215 1.24654 21.1595 1.315C21.1042 1.38323 21.0579 1.46329 21.021 1.55453C20.5856 2.65874 20.0907 3.68537 19.5352 4.63438C19.1927 5.20027 18.8781 5.69069 18.5909 6.10593C18.304 6.52104 18.0633 6.82687 17.8691 7.02292C17.6746 7.21915 17.499 7.37636 17.3414 7.49512C17.184 7.61393 17.0638 7.66412 16.9806 7.64576C16.8972 7.6274 16.8187 7.60918 16.7443 7.59096C16.6148 7.50878 16.5106 7.39703 16.4321 7.25559C16.3532 7.11415 16.3001 6.93614 16.2724 6.72168C16.2447 6.50708 16.2284 6.3225 16.2237 6.1673C16.2194 6.0123 16.2214 5.79305 16.2308 5.51018C16.2404 5.22716 16.2447 5.03567 16.2447 4.93528C16.2447 4.58845 16.2516 4.21204 16.2654 3.80595C16.2794 3.39986 16.2907 3.07811 16.3002 2.84107C16.3096 2.60379 16.314 2.35276 16.314 2.08811C16.314 1.82345 16.2976 1.6159 16.2654 1.46526C16.2335 1.31481 16.1845 1.16877 16.1199 1.02719C16.055 0.885757 15.96 0.776349 15.8353 0.698679C15.7104 0.621105 15.5551 0.559544 15.3702 0.513805C14.8796 0.404349 14.2549 0.345137 13.4957 0.335932C11.7742 0.317713 10.668 0.427314 10.1774 0.66459C9.98302 0.764842 9.80713 0.901818 9.64986 1.07509C9.4832 1.27593 9.45996 1.38553 9.58027 1.40356C10.1357 1.48559 10.5289 1.68182 10.7604 1.99207L10.8438 2.15647C10.9086 2.27509 10.9734 2.48508 11.0382 2.78617C11.103 3.08726 11.1447 3.42033 11.1631 3.78519C11.2093 4.45147 11.2093 5.02182 11.1631 5.49627C11.1168 5.97092 11.073 6.34043 11.0312 6.60508C10.9895 6.86973 10.927 7.08419 10.8438 7.2484C10.7604 7.41266 10.7049 7.51305 10.6771 7.54949C10.6493 7.58593 10.6261 7.60889 10.6078 7.61791C10.4875 7.66336 10.3623 7.68651 10.2328 7.68651C10.1031 7.68651 9.94587 7.62256 9.76078 7.49474C9.57574 7.36692 9.38371 7.19134 9.18466 6.96773C8.98562 6.74407 8.76115 6.43152 8.51114 6.03004C8.26133 5.62855 8.00213 5.15405 7.7337 4.60652L7.51161 4.20945C7.37277 3.954 7.18311 3.58205 6.94244 3.09393C6.70163 2.60562 6.48878 2.13327 6.30374 1.67698C6.22977 1.48535 6.11865 1.33945 5.97058 1.23906L5.90109 1.19787C5.85489 1.16144 5.78073 1.12275 5.67899 1.08151C5.57711 1.04033 5.47081 1.0108 5.35964 0.992625L1.55538 1.01986C1.16664 1.01986 0.902869 1.10668 0.763983 1.2801L0.708399 1.36213C0.680631 1.40782 0.666626 1.48079 0.666626 1.58124C0.666626 1.68163 0.694394 1.80485 0.749977 1.95074C1.30533 3.23757 1.90926 4.47861 2.56178 5.67405C3.21429 6.86949 3.78131 7.83246 4.26251 8.56207C4.74379 9.29222 5.23437 9.98132 5.73424 10.629C6.2341 11.277 6.56498 11.6923 6.72687 11.8747C6.88895 12.0575 7.01626 12.1941 7.10881 12.2853L7.45597 12.6138C7.67811 12.8329 8.00432 13.0952 8.43474 13.4009C8.86526 13.7067 9.34188 14.0078 9.86485 14.3046C10.3879 14.6009 10.9964 14.8428 11.6907 15.0298C12.3849 15.217 13.0606 15.2922 13.7178 15.2559H15.3145C15.6383 15.2283 15.8837 15.128 16.0504 14.9547L16.1057 14.8861C16.1428 14.8316 16.1776 14.747 16.2097 14.6331C16.2422 14.5191 16.2583 14.3934 16.2583 14.2567C16.2488 13.8644 16.2791 13.5108 16.3484 13.196C16.4176 12.8813 16.4964 12.644 16.5847 12.4842C16.6728 12.3246 16.7723 12.1898 16.883 12.0806C16.994 11.9712 17.0731 11.9048 17.1195 11.882C17.1656 11.8591 17.2024 11.8435 17.2302 11.8341C17.4523 11.7612 17.7137 11.8318 18.0149 12.0465C18.3157 12.2609 18.5979 12.5257 18.8619 12.8404C19.1257 13.1554 19.4427 13.5088 19.8128 13.9012C20.1833 14.2936 20.5071 14.5854 20.7847 14.7773L21.0623 14.9415C21.2477 15.0511 21.4883 15.1515 21.7846 15.2428C22.0803 15.334 22.3394 15.3568 22.5619 15.3112L26.1161 15.2565C26.4676 15.2565 26.7412 15.1991 26.9352 15.0853C27.1296 14.9712 27.2451 14.8456 27.2824 14.7089C27.3195 14.572 27.3215 14.4168 27.2894 14.2432C27.2565 14.0701 27.2241 13.949 27.1918 13.8806Z"/>
</symbol></svg>